<?xml version="1.0" standalone="no"?>
<!DOCTYPE svg PUBLIC "-//W3C//DTD SVG 1.1//EN" "http://www.w3.org/Graphics/SVG/1.1/DTD/svg11.dtd">
<svg version="1.1" width="1200" height="374" onload="init(evt)" viewBox="0 0 1200 374" xmlns="http://www.w3.org/2000/svg" xmlns:xlink="http://www.w3.org/1999/xlink">
<!-- Flame graph stack visualization. See https://github.com/brendangregg/FlameGraph for latest version, and http://www.brendangregg.com/flamegraphs.html for examples. -->
<!-- NOTES:  -->
<defs>
	<linearGradient id="background" y1="0" y2="1" x1="0" x2="0" >
		<stop stop-color="#eeeeee" offset="5%" />
		<stop stop-color="#eeeeb0" offset="95%" />
	</linearGradient>
</defs>
<style type="text/css">
	text { font-family:Verdana; font-size:12px; fill:rgb(0,0,0); }
	#search, #ignorecase { opacity:0.1; cursor:pointer; }
	#search:hover, #search.show, #ignorecase:hover, #ignorecase.show { opacity:1; }
	#subtitle { text-anchor:middle; font-color:rgb(160,160,160); }
	#title { text-anchor:middle; font-size:17px}
	#unzoom { cursor:pointer; }
	#frames > *:hover { stroke:black; stroke-width:0.5; cursor:pointer; }
	.hide { display:none; }
	.parent { opacity:0.5; }
</style>
<script type="text/ecmascript">
<![CDATA[
	"use strict";
	var details, searchbtn, unzoombtn, matchedtxt, svg, searching, currentSearchTerm, ignorecase, ignorecaseBtn;
	function init(evt) {
		details = document.getElementById("details").firstChild;
		searchbtn = document.getElementById("search");
		ignorecaseBtn = document.getElementById("ignorecase");
		unzoombtn = document.getElementById("unzoom");
		matchedtxt = document.getElementById("matched");
		svg = document.getElementsByTagName("svg")[0];
		searching = 0;
		currentSearchTerm = null;
	}

	window.addEventListener("click", function(e) {
		var target = find_group(e.target);
		if (target) {
			if (target.nodeName == "a") {
				if (e.ctrlKey === false) return;
				e.preventDefault();
			}
			if (target.classList.contains("parent")) unzoom();
			zoom(target);
		}
		else if (e.target.id == "unzoom") unzoom();
		else if (e.target.id == "search") search_prompt();
		else if (e.target.id == "ignorecase") toggle_ignorecase();
	}, false)

	// mouse-over for info
	// show
	window.addEventListener("mouseover", function(e) {
		var target = find_group(e.target);
		if (target) details.nodeValue = "Function: " + g_to_text(target);
	}, false)

	// clear
	window.addEventListener("mouseout", function(e) {
		var target = find_group(e.target);
		if (target) details.nodeValue = ' ';
	}, false)

	// ctrl-F for search
	window.addEventListener("keydown",function (e) {
		if (e.keyCode === 114 || (e.ctrlKey && e.keyCode === 70)) {
			e.preventDefault();
			search_prompt();
		}
	}, false)

	// ctrl-I to toggle case-sensitive search
	window.addEventListener("keydown",function (e) {
		if (e.ctrlKey && e.keyCode === 73) {
			e.preventDefault();
			toggle_ignorecase();
		}
	}, false)

	// functions
	function find_child(node, selector) {
		var children = node.querySelectorAll(selector);
		if (children.length) return children[0];
		return;
	}
	function find_group(node) {
		var parent = node.parentElement;
		if (!parent) return;
		if (parent.id == "frames") return node;
		return find_group(parent);
	}
	function orig_save(e, attr, val) {
		if (e.attributes["_orig_" + attr] != undefined) return;
		if (e.attributes[attr] == undefined) return;
		if (val == undefined) val = e.attributes[attr].value;
		e.setAttribute("_orig_" + attr, val);
	}
	function orig_load(e, attr) {
		if (e.attributes["_orig_"+attr] == undefined) return;
		e.attributes[attr].value = e.attributes["_orig_" + attr].value;
		e.removeAttribute("_orig_"+attr);
	}
	function g_to_text(e) {
		var text = find_child(e, "title").firstChild.nodeValue;
		return (text)
	}
	function g_to_func(e) {
		var func = g_to_text(e);
		// if there's any manipulation we want to do to the function
		// name before it's searched, do it here before returning.
		return (func);
	}
	function update_text(e) {
		var r = find_child(e, "rect");
		var t = find_child(e, "text");
		var w = parseFloat(r.attributes.width.value) -3;
		var txt = find_child(e, "title").textContent.replace(/\([^(]*\)$/,"");
		t.attributes.x.value = parseFloat(r.attributes.x.value) + 3;

		// Smaller than this size won't fit anything
		if (w < 2 * 12 * 0.59) {
			t.textContent = "";
			return;
		}

		t.textContent = txt;
		// Fit in full text width
		if (/^ *$/.test(txt) || t.getSubStringLength(0, txt.length) < w)
			return;

		for (var x = txt.length - 2; x > 0; x--) {
			if (t.getSubStringLength(0, x + 2) <= w) {
				t.textContent = txt.substring(0, x) + "..";
				return;
			}
		}
		t.textContent = "";
	}

	// zoom
	function zoom_reset(e) {
		if (e.attributes != undefined) {
			orig_load(e, "x");
			orig_load(e, "width");
		}
		if (e.childNodes == undefined) return;
		for (var i = 0, c = e.childNodes; i < c.length; i++) {
			zoom_reset(c[i]);
		}
	}
	function zoom_child(e, x, ratio) {
		if (e.attributes != undefined) {
			if (e.attributes.x != undefined) {
				orig_save(e, "x");
				e.attributes.x.value = (parseFloat(e.attributes.x.value) - x - 10) * ratio + 10;
				if (e.tagName == "text")
					e.attributes.x.value = find_child(e.parentNode, "rect[x]").attributes.x.value + 3;
			}
			if (e.attributes.width != undefined) {
				orig_save(e, "width");
				e.attributes.width.value = parseFloat(e.attributes.width.value) * ratio;
			}
		}

		if (e.childNodes == undefined) return;
		for (var i = 0, c = e.childNodes; i < c.length; i++) {
			zoom_child(c[i], x - 10, ratio);
		}
	}
	function zoom_parent(e) {
		if (e.attributes) {
			if (e.attributes.x != undefined) {
				orig_save(e, "x");
				e.attributes.x.value = 10;
			}
			if (e.attributes.width != undefined) {
				orig_save(e, "width");
				e.attributes.width.value = parseInt(svg.width.baseVal.value) - (10 * 2);
			}
		}
		if (e.childNodes == undefined) return;
		for (var i = 0, c = e.childNodes; i < c.length; i++) {
			zoom_parent(c[i]);
		}
	}
	function zoom(node) {
		var attr = find_child(node, "rect").attributes;
		var width = parseFloat(attr.width.value);
		var xmin = parseFloat(attr.x.value);
		var xmax = parseFloat(xmin + width);
		var ymin = parseFloat(attr.y.value);
		var ratio = (svg.width.baseVal.value - 2 * 10) / width;

		// XXX: Workaround for JavaScript float issues (fix me)
		var fudge = 0.0001;

		unzoombtn.classList.remove("hide");

		var el = document.getElementById("frames").children;
		for (var i = 0; i < el.length; i++) {
			var e = el[i];
			var a = find_child(e, "rect").attributes;
			var ex = parseFloat(a.x.value);
			var ew = parseFloat(a.width.value);
			var upstack;
			// Is it an ancestor
			if (0 == 0) {
				upstack = parseFloat(a.y.value) > ymin;
			} else {
				upstack = parseFloat(a.y.value) < ymin;
			}
			if (upstack) {
				// Direct ancestor
				if (ex <= xmin && (ex+ew+fudge) >= xmax) {
					e.classList.add("parent");
					zoom_parent(e);
					update_text(e);
				}
				// not in current path
				else
					e.classList.add("hide");
			}
			// Children maybe
			else {
				// no common path
				if (ex < xmin || ex + fudge >= xmax) {
					e.classList.add("hide");
				}
				else {
					zoom_child(e, xmin, ratio);
					update_text(e);
				}
			}
		}
		search();
	}
	function unzoom() {
		unzoombtn.classList.add("hide");
		var el = document.getElementById("frames").children;
		for(var i = 0; i < el.length; i++) {
			el[i].classList.remove("parent");
			el[i].classList.remove("hide");
			zoom_reset(el[i]);
			update_text(el[i]);
		}
		search();
	}

	// search
	function toggle_ignorecase() {
		ignorecase = !ignorecase;
		if (ignorecase) {
			ignorecaseBtn.classList.add("show");
		} else {
			ignorecaseBtn.classList.remove("show");
		}
		reset_search();
		search();
	}
	function reset_search() {
		var el = document.querySelectorAll("#frames rect");
		for (var i = 0; i < el.length; i++) {
			orig_load(el[i], "fill")
		}
	}
	function search_prompt() {
		if (!searching) {
			var term = prompt("Enter a search term (regexp " +
			    "allowed, eg: ^ext4_)"
			    + (ignorecase ? ", ignoring case" : "")
			    + "\nPress Ctrl-i to toggle case sensitivity", "");
			if (term != null) {
				currentSearchTerm = term;
				search();
			}
		} else {
			reset_search();
			searching = 0;
			currentSearchTerm = null;
			searchbtn.classList.remove("show");
			searchbtn.firstChild.nodeValue = "Search"
			matchedtxt.classList.add("hide");
			matchedtxt.firstChild.nodeValue = ""
		}
	}
	function search(term) {
		if (currentSearchTerm === null) return;
		var term = currentSearchTerm;

		var re = new RegExp(term, ignorecase ? 'i' : '');
		var el = document.getElementById("frames").children;
		var matches = new Object();
		var maxwidth = 0;
		for (var i = 0; i < el.length; i++) {
			var e = el[i];
			var func = g_to_func(e);
			var rect = find_child(e, "rect");
			if (func == null || rect == null)
				continue;

			// Save max width. Only works as we have a root frame
			var w = parseFloat(rect.attributes.width.value);
			if (w > maxwidth)
				maxwidth = w;

			if (func.match(re)) {
				// highlight
				var x = parseFloat(rect.attributes.x.value);
				orig_save(rect, "fill");
				rect.attributes.fill.value = "rgb(230,0,230)";

				// remember matches
				if (matches[x] == undefined) {
					matches[x] = w;
				} else {
					if (w > matches[x]) {
						// overwrite with parent
						matches[x] = w;
					}
				}
				searching = 1;
			}
		}
		if (!searching)
			return;

		searchbtn.classList.add("show");
		searchbtn.firstChild.nodeValue = "Reset Search";

		// calculate percent matched, excluding vertical overlap
		var count = 0;
		var lastx = -1;
		var lastw = 0;
		var keys = Array();
		for (k in matches) {
			if (matches.hasOwnProperty(k))
				keys.push(k);
		}
		// sort the matched frames by their x location
		// ascending, then width descending
		keys.sort(function(a, b){
			return a - b;
		});
		// Step through frames saving only the biggest bottom-up frames
		// thanks to the sort order. This relies on the tree property
		// where children are always smaller than their parents.
		var fudge = 0.0001;	// JavaScript floating point
		for (var k in keys) {
			var x = parseFloat(keys[k]);
			var w = matches[keys[k]];
			if (x >= lastx + lastw - fudge) {
				count += w;
				lastx = x;
				lastw = w;
			}
		}
		// display matched percent
		matchedtxt.classList.remove("hide");
		var pct = 100 * count / maxwidth;
		if (pct != 100) pct = pct.toFixed(1)
		matchedtxt.firstChild.nodeValue = "Matched: " + pct + "%";
	}
]]>
</script>
<rect x="0.0" y="0" width="1200.0" height="374.0" fill="url(#background)"  />
<text id="title" x="600.00" y="24" >Flame Graph</text>
<text id="details" x="10.00" y="357" > </text>
<text id="unzoom" x="10.00" y="24" class="hide">Reset Zoom</text>
<text id="search" x="1090.00" y="24" >Search</text>
<text id="ignorecase" x="1174.00" y="24" >ic</text>
<text id="matched" x="1090.00" y="357" > </text>
<g id="frames">
<g >
<title>[[kernel.kallsyms]] (1 samples, 0.13%)</title><rect x="1148.4" y="181" width="1.5" height="15.0" fill="rgb(238,18,16)" rx="2" ry="2" />
<text  x="1151.41" y="191.5" ></text>
</g>
<g >
<title>[[kernel.kallsyms]] (3 samples, 0.39%)</title><rect x="586.1" y="245" width="4.7" height="15.0" fill="rgb(217,87,29)" rx="2" ry="2" />
<text  x="589.14" y="255.5" ></text>
</g>
<g >
<title>[[kernel.kallsyms]] (2 samples, 0.26%)</title><rect x="1157.7" y="197" width="3.0" height="15.0" fill="rgb(212,228,51)" rx="2" ry="2" />
<text  x="1160.65" y="207.5" ></text>
</g>
<g >
<title>[[kernel.kallsyms]] (2 samples, 0.26%)</title><rect x="1186.9" y="261" width="3.1" height="15.0" fill="rgb(245,189,9)" rx="2" ry="2" />
<text  x="1189.92" y="271.5" ></text>
</g>
<g >
<title>round_and_return (20 samples, 2.61%)</title><rect x="690.9" y="277" width="30.8" height="15.0" fill="rgb(232,78,22)" rx="2" ry="2" />
<text  x="693.89" y="287.5" >ro..</text>
</g>
<g >
<title>[[kernel.kallsyms]] (2 samples, 0.26%)</title><rect x="587.7" y="133" width="3.1" height="15.0" fill="rgb(223,26,8)" rx="2" ry="2" />
<text  x="590.68" y="143.5" ></text>
</g>
<g >
<title>[[kernel.kallsyms]] (1 samples, 0.13%)</title><rect x="609.2" y="245" width="1.6" height="15.0" fill="rgb(242,102,38)" rx="2" ry="2" />
<text  x="612.24" y="255.5" ></text>
</g>
<g >
<title>[[kernel.kallsyms]] (1 samples, 0.13%)</title><rect x="609.2" y="37" width="1.6" height="15.0" fill="rgb(217,5,50)" rx="2" ry="2" />
<text  x="612.24" y="47.5" ></text>
</g>
<g >
<title>[[kernel.kallsyms]] (2 samples, 0.26%)</title><rect x="481.4" y="245" width="3.1" height="15.0" fill="rgb(248,166,50)" rx="2" ry="2" />
<text  x="484.38" y="255.5" ></text>
</g>
<g >
<title>[[kernel.kallsyms]] (2 samples, 0.26%)</title><rect x="1186.9" y="293" width="3.1" height="15.0" fill="rgb(220,29,8)" rx="2" ry="2" />
<text  x="1189.92" y="303.5" ></text>
</g>
<g >
<title>[[kernel.kallsyms]] (1 samples, 0.13%)</title><rect x="1148.4" y="261" width="1.5" height="15.0" fill="rgb(233,108,19)" rx="2" ry="2" />
<text  x="1151.41" y="271.5" ></text>
</g>
<g >
<title>_IO_fgets (37 samples, 4.83%)</title><rect x="242.6" y="277" width="57.0" height="15.0" fill="rgb(226,82,21)" rx="2" ry="2" />
<text  x="245.61" y="287.5" >_IO_fg..</text>
</g>
<g >
<title>[[kernel.kallsyms]] (2 samples, 0.26%)</title><rect x="1186.9" y="149" width="3.1" height="15.0" fill="rgb(229,25,42)" rx="2" ry="2" />
<text  x="1189.92" y="159.5" ></text>
</g>
<g >
<title>__mpn_lshift (8 samples, 1.04%)</title><rect x="774.1" y="293" width="12.3" height="15.0" fill="rgb(215,45,31)" rx="2" ry="2" />
<text  x="777.07" y="303.5" ></text>
</g>
<g >
<title>[[kernel.kallsyms]] (1 samples, 0.13%)</title><rect x="609.2" y="101" width="1.6" height="15.0" fill="rgb(252,141,13)" rx="2" ry="2" />
<text  x="612.24" y="111.5" ></text>
</g>
<g >
<title>[[kernel.kallsyms]] (1 samples, 0.13%)</title><rect x="147.1" y="85" width="1.5" height="15.0" fill="rgb(238,140,48)" rx="2" ry="2" />
<text  x="150.10" y="95.5" ></text>
</g>
<g >
<title>__memmove_avx_unaligned_erms (35 samples, 4.57%)</title><rect x="536.8" y="277" width="54.0" height="15.0" fill="rgb(221,163,7)" rx="2" ry="2" />
<text  x="539.84" y="287.5" >__mem..</text>
</g>
<g >
<title>__GI_____strtod_l_internal (95 samples, 12.40%)</title><rect x="338.1" y="277" width="146.4" height="15.0" fill="rgb(227,99,18)" rx="2" ry="2" />
<text  x="341.12" y="287.5" >__GI_____strtod_l_..</text>
</g>
<g >
<title>[[kernel.kallsyms]] (1 samples, 0.13%)</title><rect x="147.1" y="101" width="1.5" height="15.0" fill="rgb(252,173,32)" rx="2" ry="2" />
<text  x="150.10" y="111.5" ></text>
</g>
<g >
<title>[[kernel.kallsyms]] (1 samples, 0.13%)</title><rect x="1148.4" y="229" width="1.5" height="15.0" fill="rgb(244,97,13)" rx="2" ry="2" />
<text  x="1151.41" y="239.5" ></text>
</g>
<g >
<title>__strcspn_sse42 (41 samples, 5.35%)</title><rect x="151.7" y="261" width="63.2" height="15.0" fill="rgb(230,12,31)" rx="2" ry="2" />
<text  x="154.72" y="271.5" >__strc..</text>
</g>
<g >
<title>[[kernel.kallsyms]] (2 samples, 0.26%)</title><rect x="1186.9" y="213" width="3.1" height="15.0" fill="rgb(246,224,9)" rx="2" ry="2" />
<text  x="1189.92" y="223.5" ></text>
</g>
<g >
<title>[[kernel.kallsyms]] (2 samples, 0.26%)</title><rect x="481.4" y="181" width="3.1" height="15.0" fill="rgb(212,87,21)" rx="2" ry="2" />
<text  x="484.38" y="191.5" ></text>
</g>
<g >
<title>[[kernel.kallsyms]] (1 samples, 0.13%)</title><rect x="1148.4" y="197" width="1.5" height="15.0" fill="rgb(246,50,19)" rx="2" ry="2" />
<text  x="1151.41" y="207.5" ></text>
</g>
<g >
<title>[[kernel.kallsyms]] (2 samples, 0.26%)</title><rect x="481.4" y="133" width="3.1" height="15.0" fill="rgb(205,137,41)" rx="2" ry="2" />
<text  x="484.38" y="143.5" ></text>
</g>
<g >
<title>[[kernel.kallsyms]] (2 samples, 0.26%)</title><rect x="148.6" y="197" width="3.1" height="15.0" fill="rgb(221,47,50)" rx="2" ry="2" />
<text  x="151.64" y="207.5" ></text>
</g>
<g >
<title>[[kernel.kallsyms]] (1 samples, 0.13%)</title><rect x="772.5" y="245" width="1.6" height="15.0" fill="rgb(223,207,5)" rx="2" ry="2" />
<text  x="775.53" y="255.5" ></text>
</g>
<g >
<title>[[kernel.kallsyms]] (2 samples, 0.26%)</title><rect x="481.4" y="149" width="3.1" height="15.0" fill="rgb(205,155,30)" rx="2" ry="2" />
<text  x="484.38" y="159.5" ></text>
</g>
<g >
<title>[[kernel.kallsyms]] (2 samples, 0.26%)</title><rect x="481.4" y="213" width="3.1" height="15.0" fill="rgb(216,229,14)" rx="2" ry="2" />
<text  x="484.38" y="223.5" ></text>
</g>
<g >
<title>[[kernel.kallsyms]] (2 samples, 0.26%)</title><rect x="1157.7" y="149" width="3.0" height="15.0" fill="rgb(226,133,22)" rx="2" ry="2" />
<text  x="1160.65" y="159.5" ></text>
</g>
<g >
<title>[[kernel.kallsyms]] (7 samples, 0.91%)</title><rect x="1149.9" y="277" width="10.8" height="15.0" fill="rgb(233,227,7)" rx="2" ry="2" />
<text  x="1152.95" y="287.5" ></text>
</g>
<g >
<title>[[kernel.kallsyms]] (3 samples, 0.39%)</title><rect x="1156.1" y="261" width="4.6" height="15.0" fill="rgb(219,41,11)" rx="2" ry="2" />
<text  x="1159.11" y="271.5" ></text>
</g>
<g >
<title>[[kernel.kallsyms]] (1 samples, 0.13%)</title><rect x="1159.2" y="117" width="1.5" height="15.0" fill="rgb(224,70,42)" rx="2" ry="2" />
<text  x="1162.19" y="127.5" ></text>
</g>
<g >
<title>ReadSet (89 samples, 11.62%)</title><rect x="11.5" y="277" width="137.1" height="15.0" fill="rgb(238,66,21)" rx="2" ry="2" />
<text  x="14.54" y="287.5" >ReadSet</text>
</g>
<g >
<title>[[kernel.kallsyms]] (1 samples, 0.13%)</title><rect x="1148.4" y="165" width="1.5" height="15.0" fill="rgb(211,122,6)" rx="2" ry="2" />
<text  x="1151.41" y="175.5" ></text>
</g>
<g >
<title>[[kernel.kallsyms]] (3 samples, 0.39%)</title><rect x="586.1" y="181" width="4.7" height="15.0" fill="rgb(223,208,54)" rx="2" ry="2" />
<text  x="589.14" y="191.5" ></text>
</g>
<g >
<title>[[kernel.kallsyms]] (1 samples, 0.13%)</title><rect x="609.2" y="229" width="1.6" height="15.0" fill="rgb(210,60,42)" rx="2" ry="2" />
<text  x="612.24" y="239.5" ></text>
</g>
<g >
<title>[[kernel.kallsyms]] (1 samples, 0.13%)</title><rect x="150.2" y="101" width="1.5" height="15.0" fill="rgb(248,39,14)" rx="2" ry="2" />
<text  x="153.18" y="111.5" ></text>
</g>
<g >
<title>@plt (1 samples, 0.13%)</title><rect x="10.0" y="277" width="1.5" height="15.0" fill="rgb(242,223,21)" rx="2" ry="2" />
<text  x="13.00" y="287.5" ></text>
</g>
<g >
<title>[[kernel.kallsyms]] (13 samples, 1.70%)</title><rect x="128.6" y="213" width="20.0" height="15.0" fill="rgb(240,41,51)" rx="2" ry="2" />
<text  x="131.62" y="223.5" ></text>
</g>
<g >
<title>[[kernel.kallsyms]] (1 samples, 0.13%)</title><rect x="1148.4" y="245" width="1.5" height="15.0" fill="rgb(227,143,34)" rx="2" ry="2" />
<text  x="1151.41" y="255.5" ></text>
</g>
<g >
<title>[[kernel.kallsyms]] (2 samples, 0.26%)</title><rect x="148.6" y="165" width="3.1" height="15.0" fill="rgb(216,50,30)" rx="2" ry="2" />
<text  x="151.64" y="175.5" ></text>
</g>
<g >
<title>[[kernel.kallsyms]] (9 samples, 1.17%)</title><rect x="134.8" y="149" width="13.8" height="15.0" fill="rgb(216,193,9)" rx="2" ry="2" />
<text  x="137.78" y="159.5" ></text>
</g>
<g >
<title>perf (2 samples, 0.26%)</title><rect x="1186.9" y="309" width="3.1" height="15.0" fill="rgb(219,123,44)" rx="2" ry="2" />
<text  x="1189.92" y="319.5" ></text>
</g>
<g >
<title>an_qsort_doubles (43 samples, 5.61%)</title><rect x="623.1" y="277" width="66.2" height="15.0" fill="rgb(206,66,47)" rx="2" ry="2" />
<text  x="626.11" y="287.5" >an_qsor..</text>
</g>
<g >
<title>[[kernel.kallsyms]] (17 samples, 2.22%)</title><rect x="122.5" y="261" width="26.1" height="15.0" fill="rgb(210,94,50)" rx="2" ry="2" />
<text  x="125.45" y="271.5" >[..</text>
</g>
<g >
<title>[[kernel.kallsyms]] (1 samples, 0.13%)</title><rect x="609.2" y="197" width="1.6" height="15.0" fill="rgb(246,71,31)" rx="2" ry="2" />
<text  x="612.24" y="207.5" ></text>
</g>
<g >
<title>[[kernel.kallsyms]] (2 samples, 0.26%)</title><rect x="481.4" y="261" width="3.1" height="15.0" fill="rgb(246,15,23)" rx="2" ry="2" />
<text  x="484.38" y="271.5" ></text>
</g>
<g >
<title>str_to_mpn.isra.0 (13 samples, 1.70%)</title><rect x="721.7" y="277" width="20.0" height="15.0" fill="rgb(253,94,37)" rx="2" ry="2" />
<text  x="724.70" y="287.5" ></text>
</g>
<g >
<title>[[kernel.kallsyms]] (1 samples, 0.13%)</title><rect x="772.5" y="197" width="1.6" height="15.0" fill="rgb(247,129,1)" rx="2" ry="2" />
<text  x="775.53" y="207.5" ></text>
</g>
<g >
<title>[[kernel.kallsyms]] (1 samples, 0.13%)</title><rect x="150.2" y="117" width="1.5" height="15.0" fill="rgb(221,83,43)" rx="2" ry="2" />
<text  x="153.18" y="127.5" ></text>
</g>
<g >
<title>__GI_____strtod_l_internal (18 samples, 2.35%)</title><rect x="746.3" y="293" width="27.8" height="15.0" fill="rgb(253,41,38)" rx="2" ry="2" />
<text  x="749.34" y="303.5" >_..</text>
</g>
<g >
<title>an_qsort_doubles (236 samples, 30.81%)</title><rect x="786.4" y="293" width="363.5" height="15.0" fill="rgb(234,112,34)" rx="2" ry="2" />
<text  x="789.40" y="303.5" >an_qsort_doubles</text>
</g>
<g >
<title>[[kernel.kallsyms]] (2 samples, 0.26%)</title><rect x="481.4" y="197" width="3.1" height="15.0" fill="rgb(245,99,52)" rx="2" ry="2" />
<text  x="484.38" y="207.5" ></text>
</g>
<g >
<title>[[kernel.kallsyms]] (2 samples, 0.26%)</title><rect x="1186.9" y="101" width="3.1" height="15.0" fill="rgb(210,51,39)" rx="2" ry="2" />
<text  x="1189.92" y="111.5" ></text>
</g>
<g >
<title>[[kernel.kallsyms]] (2 samples, 0.26%)</title><rect x="481.4" y="85" width="3.1" height="15.0" fill="rgb(244,119,22)" rx="2" ry="2" />
<text  x="484.38" y="95.5" ></text>
</g>
<g >
<title>[[kernel.kallsyms]] (1 samples, 0.13%)</title><rect x="609.2" y="133" width="1.6" height="15.0" fill="rgb(212,20,2)" rx="2" ry="2" />
<text  x="612.24" y="143.5" ></text>
</g>
<g >
<title>round_and_return (5 samples, 0.65%)</title><rect x="1160.7" y="293" width="7.7" height="15.0" fill="rgb(210,108,53)" rx="2" ry="2" />
<text  x="1163.73" y="303.5" ></text>
</g>
<g >
<title>[[kernel.kallsyms]] (2 samples, 0.26%)</title><rect x="1186.9" y="117" width="3.1" height="15.0" fill="rgb(210,166,30)" rx="2" ry="2" />
<text  x="1189.92" y="127.5" ></text>
</g>
<g >
<title>read (7 samples, 0.91%)</title><rect x="1149.9" y="293" width="10.8" height="15.0" fill="rgb(210,172,2)" rx="2" ry="2" />
<text  x="1152.95" y="303.5" ></text>
</g>
<g >
<title>[[kernel.kallsyms]] (2 samples, 0.26%)</title><rect x="1186.9" y="197" width="3.1" height="15.0" fill="rgb(225,1,6)" rx="2" ry="2" />
<text  x="1189.92" y="207.5" ></text>
</g>
<g >
<title>__strlen_avx2 (3 samples, 0.39%)</title><rect x="610.8" y="277" width="4.6" height="15.0" fill="rgb(252,23,23)" rx="2" ry="2" />
<text  x="613.78" y="287.5" ></text>
</g>
<g >
<title>[[kernel.kallsyms]] (2 samples, 0.26%)</title><rect x="148.6" y="181" width="3.1" height="15.0" fill="rgb(220,70,17)" rx="2" ry="2" />
<text  x="151.64" y="191.5" ></text>
</g>
<g >
<title>[[kernel.kallsyms]] (1 samples, 0.13%)</title><rect x="609.2" y="181" width="1.6" height="15.0" fill="rgb(245,129,19)" rx="2" ry="2" />
<text  x="612.24" y="191.5" ></text>
</g>
<g >
<title>[[kernel.kallsyms]] (1 samples, 0.13%)</title><rect x="772.5" y="213" width="1.6" height="15.0" fill="rgb(247,209,41)" rx="2" ry="2" />
<text  x="775.53" y="223.5" ></text>
</g>
<g >
<title>__memchr_avx2 (34 samples, 4.44%)</title><rect x="484.5" y="277" width="52.3" height="15.0" fill="rgb(231,77,7)" rx="2" ry="2" />
<text  x="487.46" y="287.5" >__mem..</text>
</g>
<g >
<title>[[kernel.kallsyms]] (12 samples, 1.57%)</title><rect x="130.2" y="165" width="18.4" height="15.0" fill="rgb(207,225,41)" rx="2" ry="2" />
<text  x="133.16" y="175.5" ></text>
</g>
<g >
<title>[[kernel.kallsyms]] (2 samples, 0.26%)</title><rect x="481.4" y="165" width="3.1" height="15.0" fill="rgb(223,166,45)" rx="2" ry="2" />
<text  x="484.38" y="175.5" ></text>
</g>
<g >
<title>[[kernel.kallsyms]] (1 samples, 0.13%)</title><rect x="609.2" y="165" width="1.6" height="15.0" fill="rgb(228,31,30)" rx="2" ry="2" />
<text  x="612.24" y="175.5" ></text>
</g>
<g >
<title>[[kernel.kallsyms]] (61 samples, 7.96%)</title><rect x="148.6" y="277" width="94.0" height="15.0" fill="rgb(205,183,30)" rx="2" ry="2" />
<text  x="151.64" y="287.5" >[[kernel.ka..</text>
</g>
<g >
<title>[[kernel.kallsyms]] (2 samples, 0.26%)</title><rect x="148.6" y="229" width="3.1" height="15.0" fill="rgb(217,141,21)" rx="2" ry="2" />
<text  x="151.64" y="239.5" ></text>
</g>
<g >
<title>[[kernel.kallsyms]] (2 samples, 0.26%)</title><rect x="1186.9" y="85" width="3.1" height="15.0" fill="rgb(236,109,44)" rx="2" ry="2" />
<text  x="1189.92" y="95.5" ></text>
</g>
<g >
<title>[[kernel.kallsyms]] (2 samples, 0.26%)</title><rect x="481.4" y="229" width="3.1" height="15.0" fill="rgb(235,96,45)" rx="2" ry="2" />
<text  x="484.38" y="239.5" ></text>
</g>
<g >
<title>[[kernel.kallsyms]] (3 samples, 0.39%)</title><rect x="586.1" y="197" width="4.7" height="15.0" fill="rgb(210,6,7)" rx="2" ry="2" />
<text  x="589.14" y="207.5" ></text>
</g>
<g >
<title>[[kernel.kallsyms]] (1 samples, 0.13%)</title><rect x="772.5" y="277" width="1.6" height="15.0" fill="rgb(252,2,52)" rx="2" ry="2" />
<text  x="775.53" y="287.5" ></text>
</g>
<g >
<title>str_to_mpn.isra.0 (12 samples, 1.57%)</title><rect x="1168.4" y="293" width="18.5" height="15.0" fill="rgb(227,66,8)" rx="2" ry="2" />
<text  x="1171.43" y="303.5" ></text>
</g>
<g >
<title>__munmap (1 samples, 0.13%)</title><rect x="609.2" y="277" width="1.6" height="15.0" fill="rgb(205,84,41)" rx="2" ry="2" />
<text  x="612.24" y="287.5" ></text>
</g>
<g >
<title>[[kernel.kallsyms]] (2 samples, 0.26%)</title><rect x="148.6" y="261" width="3.1" height="15.0" fill="rgb(221,48,15)" rx="2" ry="2" />
<text  x="151.64" y="271.5" ></text>
</g>
<g >
<title>[[kernel.kallsyms]] (2 samples, 0.26%)</title><rect x="481.4" y="69" width="3.1" height="15.0" fill="rgb(228,106,6)" rx="2" ry="2" />
<text  x="484.38" y="79.5" ></text>
</g>
<g >
<title>[[kernel.kallsyms]] (15 samples, 1.96%)</title><rect x="125.5" y="245" width="23.1" height="15.0" fill="rgb(248,74,12)" rx="2" ry="2" />
<text  x="128.54" y="255.5" >[..</text>
</g>
<g >
<title>[[kernel.kallsyms]] (1 samples, 0.13%)</title><rect x="609.2" y="117" width="1.6" height="15.0" fill="rgb(214,196,51)" rx="2" ry="2" />
<text  x="612.24" y="127.5" ></text>
</g>
<g >
<title>[[kernel.kallsyms]] (1 samples, 0.13%)</title><rect x="609.2" y="149" width="1.6" height="15.0" fill="rgb(209,150,12)" rx="2" ry="2" />
<text  x="612.24" y="159.5" ></text>
</g>
<g >
<title>[[kernel.kallsyms]] (2 samples, 0.26%)</title><rect x="1157.7" y="165" width="3.0" height="15.0" fill="rgb(216,188,46)" rx="2" ry="2" />
<text  x="1160.65" y="175.5" ></text>
</g>
<g >
<title>[[kernel.kallsyms]] (1 samples, 0.13%)</title><rect x="1148.4" y="133" width="1.5" height="15.0" fill="rgb(243,192,17)" rx="2" ry="2" />
<text  x="1151.41" y="143.5" ></text>
</g>
<g >
<title>[[kernel.kallsyms]] (2 samples, 0.26%)</title><rect x="481.4" y="101" width="3.1" height="15.0" fill="rgb(237,123,39)" rx="2" ry="2" />
<text  x="484.38" y="111.5" ></text>
</g>
<g >
<title>_IO_getline (25 samples, 3.26%)</title><rect x="299.6" y="277" width="38.5" height="15.0" fill="rgb(230,61,3)" rx="2" ry="2" />
<text  x="302.61" y="287.5" >_IO..</text>
</g>
<g >
<title>[[kernel.kallsyms]] (1 samples, 0.13%)</title><rect x="609.2" y="53" width="1.6" height="15.0" fill="rgb(230,87,17)" rx="2" ry="2" />
<text  x="612.24" y="63.5" ></text>
</g>
<g >
<title>[[kernel.kallsyms]] (1 samples, 0.13%)</title><rect x="609.2" y="213" width="1.6" height="15.0" fill="rgb(215,144,36)" rx="2" ry="2" />
<text  x="612.24" y="223.5" ></text>
</g>
<g >
<title>strsep@plt (1 samples, 0.13%)</title><rect x="741.7" y="277" width="1.6" height="15.0" fill="rgb(207,132,46)" rx="2" ry="2" />
<text  x="744.72" y="287.5" ></text>
</g>
<g >
<title>[[kernel.kallsyms]] (2 samples, 0.26%)</title><rect x="1186.9" y="229" width="3.1" height="15.0" fill="rgb(214,106,13)" rx="2" ry="2" />
<text  x="1189.92" y="239.5" ></text>
</g>
<g >
<title>[[kernel.kallsyms]] (2 samples, 0.26%)</title><rect x="481.4" y="117" width="3.1" height="15.0" fill="rgb(208,53,42)" rx="2" ry="2" />
<text  x="484.38" y="127.5" ></text>
</g>
<g >
<title>[[kernel.kallsyms]] (3 samples, 0.39%)</title><rect x="586.1" y="229" width="4.7" height="15.0" fill="rgb(242,7,42)" rx="2" ry="2" />
<text  x="589.14" y="239.5" ></text>
</g>
<g >
<title>[[kernel.kallsyms]] (1 samples, 0.13%)</title><rect x="609.2" y="69" width="1.6" height="15.0" fill="rgb(252,50,12)" rx="2" ry="2" />
<text  x="612.24" y="79.5" ></text>
</g>
<g >
<title>[[kernel.kallsyms]] (6 samples, 0.78%)</title><rect x="581.5" y="261" width="9.3" height="15.0" fill="rgb(236,157,24)" rx="2" ry="2" />
<text  x="584.51" y="271.5" ></text>
</g>
<g >
<title>[[kernel.kallsyms]] (1 samples, 0.13%)</title><rect x="609.2" y="85" width="1.6" height="15.0" fill="rgb(238,177,39)" rx="2" ry="2" />
<text  x="612.24" y="95.5" ></text>
</g>
<g >
<title>__uflow (1 samples, 0.13%)</title><rect x="621.6" y="277" width="1.5" height="15.0" fill="rgb(253,19,16)" rx="2" ry="2" />
<text  x="624.57" y="287.5" ></text>
</g>
<g >
<title>[[kernel.kallsyms]] (3 samples, 0.39%)</title><rect x="1156.1" y="229" width="4.6" height="15.0" fill="rgb(221,104,15)" rx="2" ry="2" />
<text  x="1159.11" y="239.5" ></text>
</g>
<g >
<title>[[kernel.kallsyms]] (2 samples, 0.26%)</title><rect x="1186.9" y="165" width="3.1" height="15.0" fill="rgb(217,51,15)" rx="2" ry="2" />
<text  x="1189.92" y="175.5" ></text>
</g>
<g >
<title>__strsep_g (18 samples, 2.35%)</title><rect x="214.9" y="261" width="27.7" height="15.0" fill="rgb(209,226,9)" rx="2" ry="2" />
<text  x="217.88" y="271.5" >_..</text>
</g>
<g >
<title>[[kernel.kallsyms]] (2 samples, 0.26%)</title><rect x="587.7" y="117" width="3.1" height="15.0" fill="rgb(209,65,21)" rx="2" ry="2" />
<text  x="590.68" y="127.5" ></text>
</g>
<g >
<title>[[kernel.kallsyms]] (2 samples, 0.26%)</title><rect x="587.7" y="149" width="3.1" height="15.0" fill="rgb(251,108,51)" rx="2" ry="2" />
<text  x="590.68" y="159.5" ></text>
</g>
<g >
<title>[[kernel.kallsyms]] (3 samples, 0.39%)</title><rect x="1156.1" y="245" width="4.6" height="15.0" fill="rgb(245,133,46)" rx="2" ry="2" />
<text  x="1159.11" y="255.5" ></text>
</g>
<g >
<title>[[kernel.kallsyms]] (5 samples, 0.65%)</title><rect x="140.9" y="117" width="7.7" height="15.0" fill="rgb(247,152,50)" rx="2" ry="2" />
<text  x="143.94" y="127.5" ></text>
</g>
<g >
<title>[[kernel.kallsyms]] (2 samples, 0.26%)</title><rect x="1186.9" y="245" width="3.1" height="15.0" fill="rgb(209,35,48)" rx="2" ry="2" />
<text  x="1189.92" y="255.5" ></text>
</g>
<g >
<title>[[kernel.kallsyms]] (1 samples, 0.13%)</title><rect x="772.5" y="261" width="1.6" height="15.0" fill="rgb(218,188,31)" rx="2" ry="2" />
<text  x="775.53" y="271.5" ></text>
</g>
<g >
<title>[[kernel.kallsyms]] (13 samples, 1.70%)</title><rect x="128.6" y="197" width="20.0" height="15.0" fill="rgb(239,88,51)" rx="2" ry="2" />
<text  x="131.62" y="207.5" ></text>
</g>
<g >
<title>[[kernel.kallsyms]] (1 samples, 0.13%)</title><rect x="609.2" y="261" width="1.6" height="15.0" fill="rgb(216,150,42)" rx="2" ry="2" />
<text  x="612.24" y="271.5" ></text>
</g>
<g >
<title>[[kernel.kallsyms]] (1 samples, 0.13%)</title><rect x="150.2" y="69" width="1.5" height="15.0" fill="rgb(254,168,49)" rx="2" ry="2" />
<text  x="153.18" y="79.5" ></text>
</g>
<g >
<title>[[kernel.kallsyms]] (1 samples, 0.13%)</title><rect x="1148.4" y="277" width="1.5" height="15.0" fill="rgb(228,6,22)" rx="2" ry="2" />
<text  x="1151.41" y="287.5" ></text>
</g>
<g >
<title>[[kernel.kallsyms]] (8 samples, 1.04%)</title><rect x="136.3" y="133" width="12.3" height="15.0" fill="rgb(248,209,47)" rx="2" ry="2" />
<text  x="139.32" y="143.5" ></text>
</g>
<g >
<title>[[kernel.kallsyms]] (1 samples, 0.13%)</title><rect x="150.2" y="85" width="1.5" height="15.0" fill="rgb(212,143,18)" rx="2" ry="2" />
<text  x="153.18" y="95.5" ></text>
</g>
<g >
<title>[[kernel.kallsyms]] (1 samples, 0.13%)</title><rect x="772.5" y="229" width="1.6" height="15.0" fill="rgb(240,127,29)" rx="2" ry="2" />
<text  x="775.53" y="239.5" ></text>
</g>
<g >
<title>[[kernel.kallsyms]] (2 samples, 0.26%)</title><rect x="148.6" y="245" width="3.1" height="15.0" fill="rgb(226,217,0)" rx="2" ry="2" />
<text  x="151.64" y="255.5" ></text>
</g>
<g >
<title>[[kernel.kallsyms]] (2 samples, 0.26%)</title><rect x="1186.9" y="181" width="3.1" height="15.0" fill="rgb(222,225,10)" rx="2" ry="2" />
<text  x="1189.92" y="191.5" ></text>
</g>
<g >
<title>__mpn_construct_double (12 samples, 1.57%)</title><rect x="590.8" y="277" width="18.4" height="15.0" fill="rgb(223,78,29)" rx="2" ry="2" />
<text  x="593.76" y="287.5" ></text>
</g>
<g >
<title>[[kernel.kallsyms]] (3 samples, 0.39%)</title><rect x="586.1" y="213" width="4.7" height="15.0" fill="rgb(211,35,7)" rx="2" ry="2" />
<text  x="589.14" y="223.5" ></text>
</g>
<g >
<title>[[kernel.kallsyms]] (3 samples, 0.39%)</title><rect x="586.1" y="165" width="4.7" height="15.0" fill="rgb(217,148,43)" rx="2" ry="2" />
<text  x="589.14" y="175.5" ></text>
</g>
<g >
<title>[[kernel.kallsyms]] (1 samples, 0.13%)</title><rect x="1159.2" y="101" width="1.5" height="15.0" fill="rgb(219,224,28)" rx="2" ry="2" />
<text  x="1162.19" y="111.5" ></text>
</g>
<g >
<title>all (766 samples, 100%)</title><rect x="10.0" y="325" width="1180.0" height="15.0" fill="rgb(243,229,9)" rx="2" ry="2" />
<text  x="13.00" y="335.5" ></text>
</g>
<g >
<title>[[kernel.kallsyms]] (1 samples, 0.13%)</title><rect x="1148.4" y="213" width="1.5" height="15.0" fill="rgb(253,16,45)" rx="2" ry="2" />
<text  x="1151.41" y="223.5" ></text>
</g>
<g >
<title>[[kernel.kallsyms]] (2 samples, 0.26%)</title><rect x="1186.9" y="277" width="3.1" height="15.0" fill="rgb(229,31,46)" rx="2" ry="2" />
<text  x="1189.92" y="287.5" ></text>
</g>
<g >
<title>[[kernel.kallsyms]] (12 samples, 1.57%)</title><rect x="130.2" y="181" width="18.4" height="15.0" fill="rgb(209,140,47)" rx="2" ry="2" />
<text  x="133.16" y="191.5" ></text>
</g>
<g >
<title>fgets@plt (1 samples, 0.13%)</title><rect x="689.3" y="277" width="1.6" height="15.0" fill="rgb(225,104,37)" rx="2" ry="2" />
<text  x="692.35" y="287.5" ></text>
</g>
<g >
<title>[[kernel.kallsyms]] (478 samples, 62.40%)</title><rect x="10.0" y="293" width="736.3" height="15.0" fill="rgb(241,71,18)" rx="2" ry="2" />
<text  x="13.00" y="303.5" >[[kernel.kallsyms]]</text>
</g>
<g >
<title>[[kernel.kallsyms]] (1 samples, 0.13%)</title><rect x="150.2" y="53" width="1.5" height="15.0" fill="rgb(220,121,24)" rx="2" ry="2" />
<text  x="153.18" y="63.5" ></text>
</g>
<g >
<title>[[kernel.kallsyms]] (14 samples, 1.83%)</title><rect x="127.1" y="229" width="21.5" height="15.0" fill="rgb(213,93,39)" rx="2" ry="2" />
<text  x="130.08" y="239.5" >[..</text>
</g>
<g >
<title>[[kernel.kallsyms]] (2 samples, 0.26%)</title><rect x="148.6" y="213" width="3.1" height="15.0" fill="rgb(252,19,44)" rx="2" ry="2" />
<text  x="151.64" y="223.5" ></text>
</g>
<g >
<title>[[kernel.kallsyms]] (1 samples, 0.13%)</title><rect x="150.2" y="133" width="1.5" height="15.0" fill="rgb(207,48,40)" rx="2" ry="2" />
<text  x="153.18" y="143.5" ></text>
</g>
<g >
<title>[[kernel.kallsyms]] (1 samples, 0.13%)</title><rect x="1148.4" y="149" width="1.5" height="15.0" fill="rgb(217,51,20)" rx="2" ry="2" />
<text  x="1151.41" y="159.5" ></text>
</g>
<g >
<title>strtod@plt (2 samples, 0.26%)</title><rect x="743.3" y="277" width="3.0" height="15.0" fill="rgb(246,139,22)" rx="2" ry="2" />
<text  x="746.26" y="287.5" ></text>
</g>
<g >
<title>__strsep_g (4 samples, 0.52%)</title><rect x="615.4" y="277" width="6.2" height="15.0" fill="rgb(216,65,44)" rx="2" ry="2" />
<text  x="618.40" y="287.5" ></text>
</g>
<g >
<title>[[kernel.kallsyms]] (2 samples, 0.26%)</title><rect x="1157.7" y="133" width="3.0" height="15.0" fill="rgb(223,22,8)" rx="2" ry="2" />
<text  x="1160.65" y="143.5" ></text>
</g>
<g >
<title>[[kernel.kallsyms]] (2 samples, 0.26%)</title><rect x="1157.7" y="213" width="3.0" height="15.0" fill="rgb(250,207,21)" rx="2" ry="2" />
<text  x="1160.65" y="223.5" ></text>
</g>
<g >
<title>[[kernel.kallsyms]] (2 samples, 0.26%)</title><rect x="1157.7" y="181" width="3.0" height="15.0" fill="rgb(224,209,40)" rx="2" ry="2" />
<text  x="1160.65" y="191.5" ></text>
</g>
<g >
<title>[[kernel.kallsyms]] (2 samples, 0.26%)</title><rect x="1186.9" y="133" width="3.1" height="15.0" fill="rgb(234,214,39)" rx="2" ry="2" />
<text  x="1189.92" y="143.5" ></text>
</g>
<g >
<title>ministat (764 samples, 99.74%)</title><rect x="10.0" y="309" width="1176.9" height="15.0" fill="rgb(213,48,5)" rx="2" ry="2" />
<text  x="13.00" y="319.5" >ministat</text>
</g>
<g >
<title>[[kernel.kallsyms]] (2 samples, 0.26%)</title><rect x="148.6" y="149" width="3.1" height="15.0" fill="rgb(254,207,5)" rx="2" ry="2" />
<text  x="151.64" y="159.5" ></text>
</g>
</g>
</svg>
