<?xml version="1.0" standalone="no"?>
<!DOCTYPE svg PUBLIC "-//W3C//DTD SVG 1.1//EN" "http://www.w3.org/Graphics/SVG/1.1/DTD/svg11.dtd">
<svg version="1.1" width="1200" height="358" onload="init(evt)" viewBox="0 0 1200 358" xmlns="http://www.w3.org/2000/svg" xmlns:xlink="http://www.w3.org/1999/xlink">
<!-- Flame graph stack visualization. See https://github.com/brendangregg/FlameGraph for latest version, and http://www.brendangregg.com/flamegraphs.html for examples. -->
<!-- NOTES:  -->
<defs>
	<linearGradient id="background" y1="0" y2="1" x1="0" x2="0" >
		<stop stop-color="#eeeeee" offset="5%" />
		<stop stop-color="#eeeeb0" offset="95%" />
	</linearGradient>
</defs>
<style type="text/css">
	text { font-family:Verdana; font-size:12px; fill:rgb(0,0,0); }
	#search, #ignorecase { opacity:0.1; cursor:pointer; }
	#search:hover, #search.show, #ignorecase:hover, #ignorecase.show { opacity:1; }
	#subtitle { text-anchor:middle; font-color:rgb(160,160,160); }
	#title { text-anchor:middle; font-size:17px}
	#unzoom { cursor:pointer; }
	#frames > *:hover { stroke:black; stroke-width:0.5; cursor:pointer; }
	.hide { display:none; }
	.parent { opacity:0.5; }
</style>
<script type="text/ecmascript">
<![CDATA[
	"use strict";
	var details, searchbtn, unzoombtn, matchedtxt, svg, searching, currentSearchTerm, ignorecase, ignorecaseBtn;
	function init(evt) {
		details = document.getElementById("details").firstChild;
		searchbtn = document.getElementById("search");
		ignorecaseBtn = document.getElementById("ignorecase");
		unzoombtn = document.getElementById("unzoom");
		matchedtxt = document.getElementById("matched");
		svg = document.getElementsByTagName("svg")[0];
		searching = 0;
		currentSearchTerm = null;
	}

	window.addEventListener("click", function(e) {
		var target = find_group(e.target);
		if (target) {
			if (target.nodeName == "a") {
				if (e.ctrlKey === false) return;
				e.preventDefault();
			}
			if (target.classList.contains("parent")) unzoom();
			zoom(target);
		}
		else if (e.target.id == "unzoom") unzoom();
		else if (e.target.id == "search") search_prompt();
		else if (e.target.id == "ignorecase") toggle_ignorecase();
	}, false)

	// mouse-over for info
	// show
	window.addEventListener("mouseover", function(e) {
		var target = find_group(e.target);
		if (target) details.nodeValue = "Function: " + g_to_text(target);
	}, false)

	// clear
	window.addEventListener("mouseout", function(e) {
		var target = find_group(e.target);
		if (target) details.nodeValue = ' ';
	}, false)

	// ctrl-F for search
	window.addEventListener("keydown",function (e) {
		if (e.keyCode === 114 || (e.ctrlKey && e.keyCode === 70)) {
			e.preventDefault();
			search_prompt();
		}
	}, false)

	// ctrl-I to toggle case-sensitive search
	window.addEventListener("keydown",function (e) {
		if (e.ctrlKey && e.keyCode === 73) {
			e.preventDefault();
			toggle_ignorecase();
		}
	}, false)

	// functions
	function find_child(node, selector) {
		var children = node.querySelectorAll(selector);
		if (children.length) return children[0];
		return;
	}
	function find_group(node) {
		var parent = node.parentElement;
		if (!parent) return;
		if (parent.id == "frames") return node;
		return find_group(parent);
	}
	function orig_save(e, attr, val) {
		if (e.attributes["_orig_" + attr] != undefined) return;
		if (e.attributes[attr] == undefined) return;
		if (val == undefined) val = e.attributes[attr].value;
		e.setAttribute("_orig_" + attr, val);
	}
	function orig_load(e, attr) {
		if (e.attributes["_orig_"+attr] == undefined) return;
		e.attributes[attr].value = e.attributes["_orig_" + attr].value;
		e.removeAttribute("_orig_"+attr);
	}
	function g_to_text(e) {
		var text = find_child(e, "title").firstChild.nodeValue;
		return (text)
	}
	function g_to_func(e) {
		var func = g_to_text(e);
		// if there's any manipulation we want to do to the function
		// name before it's searched, do it here before returning.
		return (func);
	}
	function update_text(e) {
		var r = find_child(e, "rect");
		var t = find_child(e, "text");
		var w = parseFloat(r.attributes.width.value) -3;
		var txt = find_child(e, "title").textContent.replace(/\([^(]*\)$/,"");
		t.attributes.x.value = parseFloat(r.attributes.x.value) + 3;

		// Smaller than this size won't fit anything
		if (w < 2 * 12 * 0.59) {
			t.textContent = "";
			return;
		}

		t.textContent = txt;
		// Fit in full text width
		if (/^ *$/.test(txt) || t.getSubStringLength(0, txt.length) < w)
			return;

		for (var x = txt.length - 2; x > 0; x--) {
			if (t.getSubStringLength(0, x + 2) <= w) {
				t.textContent = txt.substring(0, x) + "..";
				return;
			}
		}
		t.textContent = "";
	}

	// zoom
	function zoom_reset(e) {
		if (e.attributes != undefined) {
			orig_load(e, "x");
			orig_load(e, "width");
		}
		if (e.childNodes == undefined) return;
		for (var i = 0, c = e.childNodes; i < c.length; i++) {
			zoom_reset(c[i]);
		}
	}
	function zoom_child(e, x, ratio) {
		if (e.attributes != undefined) {
			if (e.attributes.x != undefined) {
				orig_save(e, "x");
				e.attributes.x.value = (parseFloat(e.attributes.x.value) - x - 10) * ratio + 10;
				if (e.tagName == "text")
					e.attributes.x.value = find_child(e.parentNode, "rect[x]").attributes.x.value + 3;
			}
			if (e.attributes.width != undefined) {
				orig_save(e, "width");
				e.attributes.width.value = parseFloat(e.attributes.width.value) * ratio;
			}
		}

		if (e.childNodes == undefined) return;
		for (var i = 0, c = e.childNodes; i < c.length; i++) {
			zoom_child(c[i], x - 10, ratio);
		}
	}
	function zoom_parent(e) {
		if (e.attributes) {
			if (e.attributes.x != undefined) {
				orig_save(e, "x");
				e.attributes.x.value = 10;
			}
			if (e.attributes.width != undefined) {
				orig_save(e, "width");
				e.attributes.width.value = parseInt(svg.width.baseVal.value) - (10 * 2);
			}
		}
		if (e.childNodes == undefined) return;
		for (var i = 0, c = e.childNodes; i < c.length; i++) {
			zoom_parent(c[i]);
		}
	}
	function zoom(node) {
		var attr = find_child(node, "rect").attributes;
		var width = parseFloat(attr.width.value);
		var xmin = parseFloat(attr.x.value);
		var xmax = parseFloat(xmin + width);
		var ymin = parseFloat(attr.y.value);
		var ratio = (svg.width.baseVal.value - 2 * 10) / width;

		// XXX: Workaround for JavaScript float issues (fix me)
		var fudge = 0.0001;

		unzoombtn.classList.remove("hide");

		var el = document.getElementById("frames").children;
		for (var i = 0; i < el.length; i++) {
			var e = el[i];
			var a = find_child(e, "rect").attributes;
			var ex = parseFloat(a.x.value);
			var ew = parseFloat(a.width.value);
			var upstack;
			// Is it an ancestor
			if (0 == 0) {
				upstack = parseFloat(a.y.value) > ymin;
			} else {
				upstack = parseFloat(a.y.value) < ymin;
			}
			if (upstack) {
				// Direct ancestor
				if (ex <= xmin && (ex+ew+fudge) >= xmax) {
					e.classList.add("parent");
					zoom_parent(e);
					update_text(e);
				}
				// not in current path
				else
					e.classList.add("hide");
			}
			// Children maybe
			else {
				// no common path
				if (ex < xmin || ex + fudge >= xmax) {
					e.classList.add("hide");
				}
				else {
					zoom_child(e, xmin, ratio);
					update_text(e);
				}
			}
		}
		search();
	}
	function unzoom() {
		unzoombtn.classList.add("hide");
		var el = document.getElementById("frames").children;
		for(var i = 0; i < el.length; i++) {
			el[i].classList.remove("parent");
			el[i].classList.remove("hide");
			zoom_reset(el[i]);
			update_text(el[i]);
		}
		search();
	}

	// search
	function toggle_ignorecase() {
		ignorecase = !ignorecase;
		if (ignorecase) {
			ignorecaseBtn.classList.add("show");
		} else {
			ignorecaseBtn.classList.remove("show");
		}
		reset_search();
		search();
	}
	function reset_search() {
		var el = document.querySelectorAll("#frames rect");
		for (var i = 0; i < el.length; i++) {
			orig_load(el[i], "fill")
		}
	}
	function search_prompt() {
		if (!searching) {
			var term = prompt("Enter a search term (regexp " +
			    "allowed, eg: ^ext4_)"
			    + (ignorecase ? ", ignoring case" : "")
			    + "\nPress Ctrl-i to toggle case sensitivity", "");
			if (term != null) {
				currentSearchTerm = term;
				search();
			}
		} else {
			reset_search();
			searching = 0;
			currentSearchTerm = null;
			searchbtn.classList.remove("show");
			searchbtn.firstChild.nodeValue = "Search"
			matchedtxt.classList.add("hide");
			matchedtxt.firstChild.nodeValue = ""
		}
	}
	function search(term) {
		if (currentSearchTerm === null) return;
		var term = currentSearchTerm;

		var re = new RegExp(term, ignorecase ? 'i' : '');
		var el = document.getElementById("frames").children;
		var matches = new Object();
		var maxwidth = 0;
		for (var i = 0; i < el.length; i++) {
			var e = el[i];
			var func = g_to_func(e);
			var rect = find_child(e, "rect");
			if (func == null || rect == null)
				continue;

			// Save max width. Only works as we have a root frame
			var w = parseFloat(rect.attributes.width.value);
			if (w > maxwidth)
				maxwidth = w;

			if (func.match(re)) {
				// highlight
				var x = parseFloat(rect.attributes.x.value);
				orig_save(rect, "fill");
				rect.attributes.fill.value = "rgb(230,0,230)";

				// remember matches
				if (matches[x] == undefined) {
					matches[x] = w;
				} else {
					if (w > matches[x]) {
						// overwrite with parent
						matches[x] = w;
					}
				}
				searching = 1;
			}
		}
		if (!searching)
			return;

		searchbtn.classList.add("show");
		searchbtn.firstChild.nodeValue = "Reset Search";

		// calculate percent matched, excluding vertical overlap
		var count = 0;
		var lastx = -1;
		var lastw = 0;
		var keys = Array();
		for (k in matches) {
			if (matches.hasOwnProperty(k))
				keys.push(k);
		}
		// sort the matched frames by their x location
		// ascending, then width descending
		keys.sort(function(a, b){
			return a - b;
		});
		// Step through frames saving only the biggest bottom-up frames
		// thanks to the sort order. This relies on the tree property
		// where children are always smaller than their parents.
		var fudge = 0.0001;	// JavaScript floating point
		for (var k in keys) {
			var x = parseFloat(keys[k]);
			var w = matches[keys[k]];
			if (x >= lastx + lastw - fudge) {
				count += w;
				lastx = x;
				lastw = w;
			}
		}
		// display matched percent
		matchedtxt.classList.remove("hide");
		var pct = 100 * count / maxwidth;
		if (pct != 100) pct = pct.toFixed(1)
		matchedtxt.firstChild.nodeValue = "Matched: " + pct + "%";
	}
]]>
</script>
<rect x="0.0" y="0" width="1200.0" height="358.0" fill="url(#background)"  />
<text id="title" x="600.00" y="24" >Flame Graph</text>
<text id="details" x="10.00" y="341" > </text>
<text id="unzoom" x="10.00" y="24" class="hide">Reset Zoom</text>
<text id="search" x="1090.00" y="24" >Search</text>
<text id="ignorecase" x="1174.00" y="24" >ic</text>
<text id="matched" x="1090.00" y="341" > </text>
<g id="frames">
<g >
<title>[[kernel.kallsyms]] (1 samples, 0.08%)</title><rect x="93.3" y="133" width="1.0" height="15.0" fill="rgb(222,12,27)" rx="2" ry="2" />
<text  x="96.35" y="143.5" ></text>
</g>
<g >
<title>[[kernel.kallsyms]] (16 samples, 1.27%)</title><rect x="73.7" y="213" width="15.0" height="15.0" fill="rgb(244,4,39)" rx="2" ry="2" />
<text  x="76.68" y="223.5" ></text>
</g>
<g >
<title>@plt (1 samples, 0.08%)</title><rect x="10.0" y="277" width="0.9" height="15.0" fill="rgb(215,213,28)" rx="2" ry="2" />
<text  x="13.00" y="287.5" ></text>
</g>
<g >
<title>__memmove_avx_unaligned_erms (5 samples, 0.40%)</title><rect x="88.7" y="261" width="4.6" height="15.0" fill="rgb(225,187,3)" rx="2" ry="2" />
<text  x="91.67" y="271.5" ></text>
</g>
<g >
<title>[[kernel.kallsyms]] (10 samples, 0.79%)</title><rect x="527.0" y="261" width="9.3" height="15.0" fill="rgb(250,179,41)" rx="2" ry="2" />
<text  x="529.95" y="271.5" ></text>
</g>
<g >
<title>[[kernel.kallsyms]] (8 samples, 0.63%)</title><rect x="1150.7" y="229" width="7.5" height="15.0" fill="rgb(207,148,33)" rx="2" ry="2" />
<text  x="1153.67" y="239.5" ></text>
</g>
<g >
<title>[[kernel.kallsyms]] (8 samples, 0.63%)</title><rect x="1150.7" y="197" width="7.5" height="15.0" fill="rgb(233,158,26)" rx="2" ry="2" />
<text  x="1153.67" y="207.5" ></text>
</g>
<g >
<title>[[kernel.kallsyms]] (16 samples, 1.27%)</title><rect x="73.7" y="229" width="15.0" height="15.0" fill="rgb(212,2,34)" rx="2" ry="2" />
<text  x="76.68" y="239.5" ></text>
</g>
<g >
<title>[[kernel.kallsyms]] (2 samples, 0.16%)</title><rect x="117.7" y="37" width="1.9" height="15.0" fill="rgb(229,170,13)" rx="2" ry="2" />
<text  x="120.70" y="47.5" ></text>
</g>
<g >
<title>[[kernel.kallsyms]] (2 samples, 0.16%)</title><rect x="1188.1" y="149" width="1.9" height="15.0" fill="rgb(244,16,17)" rx="2" ry="2" />
<text  x="1191.13" y="159.5" ></text>
</g>
<g >
<title>round_and_return (4 samples, 0.32%)</title><rect x="1158.2" y="277" width="3.7" height="15.0" fill="rgb(228,135,50)" rx="2" ry="2" />
<text  x="1161.16" y="287.5" ></text>
</g>
<g >
<title>[[kernel.kallsyms]] (2 samples, 0.16%)</title><rect x="117.7" y="197" width="1.9" height="15.0" fill="rgb(206,224,1)" rx="2" ry="2" />
<text  x="120.70" y="207.5" ></text>
</g>
<g >
<title>[[kernel.kallsyms]] (2 samples, 0.16%)</title><rect x="98.0" y="181" width="1.9" height="15.0" fill="rgb(243,84,54)" rx="2" ry="2" />
<text  x="101.03" y="191.5" ></text>
</g>
<g >
<title>[[kernel.kallsyms]] (4 samples, 0.32%)</title><rect x="1154.4" y="133" width="3.8" height="15.0" fill="rgb(245,27,2)" rx="2" ry="2" />
<text  x="1157.41" y="143.5" ></text>
</g>
<g >
<title>[[kernel.kallsyms]] (1 samples, 0.08%)</title><rect x="542.9" y="165" width="0.9" height="15.0" fill="rgb(253,19,36)" rx="2" ry="2" />
<text  x="545.87" y="175.5" ></text>
</g>
<g >
<title>[[kernel.kallsyms]] (1 samples, 0.08%)</title><rect x="542.9" y="261" width="0.9" height="15.0" fill="rgb(234,227,17)" rx="2" ry="2" />
<text  x="545.87" y="271.5" ></text>
</g>
<g >
<title>[[kernel.kallsyms]] (2 samples, 0.16%)</title><rect x="98.0" y="101" width="1.9" height="15.0" fill="rgb(218,90,3)" rx="2" ry="2" />
<text  x="101.03" y="111.5" ></text>
</g>
<g >
<title>[[kernel.kallsyms]] (14 samples, 1.11%)</title><rect x="75.6" y="181" width="13.1" height="15.0" fill="rgb(212,58,14)" rx="2" ry="2" />
<text  x="78.56" y="191.5" ></text>
</g>
<g >
<title>[[kernel.kallsyms]] (5 samples, 0.40%)</title><rect x="1153.5" y="149" width="4.7" height="15.0" fill="rgb(227,111,51)" rx="2" ry="2" />
<text  x="1156.48" y="159.5" ></text>
</g>
<g >
<title>[[kernel.kallsyms]] (8 samples, 0.63%)</title><rect x="1150.7" y="213" width="7.5" height="15.0" fill="rgb(244,105,3)" rx="2" ry="2" />
<text  x="1153.67" y="223.5" ></text>
</g>
<g >
<title>[[kernel.kallsyms]] (1 samples, 0.08%)</title><rect x="542.9" y="181" width="0.9" height="15.0" fill="rgb(249,129,53)" rx="2" ry="2" />
<text  x="545.87" y="191.5" ></text>
</g>
<g >
<title>[[kernel.kallsyms]] (1 samples, 0.08%)</title><rect x="93.3" y="229" width="1.0" height="15.0" fill="rgb(240,88,47)" rx="2" ry="2" />
<text  x="96.35" y="239.5" ></text>
</g>
<g >
<title>[[kernel.kallsyms]] (7 samples, 0.56%)</title><rect x="529.8" y="245" width="6.5" height="15.0" fill="rgb(231,183,20)" rx="2" ry="2" />
<text  x="532.76" y="255.5" ></text>
</g>
<g >
<title>@plt (2 samples, 0.16%)</title><rect x="94.3" y="261" width="1.9" height="15.0" fill="rgb(221,166,49)" rx="2" ry="2" />
<text  x="97.29" y="271.5" ></text>
</g>
<g >
<title>[[kernel.kallsyms]] (3 samples, 0.24%)</title><rect x="533.5" y="117" width="2.8" height="15.0" fill="rgb(224,101,26)" rx="2" ry="2" />
<text  x="536.51" y="127.5" ></text>
</g>
<g >
<title>[[kernel.kallsyms]] (2 samples, 0.16%)</title><rect x="1188.1" y="165" width="1.9" height="15.0" fill="rgb(231,83,12)" rx="2" ry="2" />
<text  x="1191.13" y="175.5" ></text>
</g>
<g >
<title>[[kernel.kallsyms]] (2 samples, 0.16%)</title><rect x="1188.1" y="197" width="1.9" height="15.0" fill="rgb(253,36,17)" rx="2" ry="2" />
<text  x="1191.13" y="207.5" ></text>
</g>
<g >
<title>__strspn_sse42 (32 samples, 2.54%)</title><rect x="119.6" y="245" width="29.9" height="15.0" fill="rgb(245,220,17)" rx="2" ry="2" />
<text  x="122.57" y="255.5" >__..</text>
</g>
<g >
<title>[[kernel.kallsyms]] (1 samples, 0.08%)</title><rect x="99.0" y="53" width="0.9" height="15.0" fill="rgb(246,128,49)" rx="2" ry="2" />
<text  x="101.97" y="63.5" ></text>
</g>
<g >
<title>dbl_cmp (328 samples, 26.03%)</title><rect x="555.0" y="277" width="307.2" height="15.0" fill="rgb(227,62,31)" rx="2" ry="2" />
<text  x="558.05" y="287.5" >dbl_cmp</text>
</g>
<g >
<title>[[kernel.kallsyms]] (2 samples, 0.16%)</title><rect x="98.0" y="229" width="1.9" height="15.0" fill="rgb(213,93,13)" rx="2" ry="2" />
<text  x="101.03" y="239.5" ></text>
</g>
<g >
<title>[[kernel.kallsyms]] (1 samples, 0.08%)</title><rect x="535.4" y="53" width="0.9" height="15.0" fill="rgb(223,18,19)" rx="2" ry="2" />
<text  x="538.38" y="63.5" ></text>
</g>
<g >
<title>ministat (1,258 samples, 99.84%)</title><rect x="10.0" y="293" width="1178.1" height="15.0" fill="rgb(245,93,32)" rx="2" ry="2" />
<text  x="13.00" y="303.5" >ministat</text>
</g>
<g >
<title>strtok (3 samples, 0.24%)</title><rect x="1184.4" y="277" width="2.8" height="15.0" fill="rgb(249,135,18)" rx="2" ry="2" />
<text  x="1187.38" y="287.5" ></text>
</g>
<g >
<title>[[kernel.kallsyms]] (2 samples, 0.16%)</title><rect x="1188.1" y="69" width="1.9" height="15.0" fill="rgb(226,32,27)" rx="2" ry="2" />
<text  x="1191.13" y="79.5" ></text>
</g>
<g >
<title>[[kernel.kallsyms]] (12 samples, 0.95%)</title><rect x="1135.7" y="245" width="11.2" height="15.0" fill="rgb(225,149,1)" rx="2" ry="2" />
<text  x="1138.68" y="255.5" ></text>
</g>
<g >
<title>fgets@plt (1 samples, 0.08%)</title><rect x="862.2" y="277" width="1.0" height="15.0" fill="rgb(205,127,12)" rx="2" ry="2" />
<text  x="865.22" y="287.5" ></text>
</g>
<g >
<title>__memmove_avx_unaligned_erms (14 samples, 1.11%)</title><rect x="329.3" y="261" width="13.2" height="15.0" fill="rgb(209,148,26)" rx="2" ry="2" />
<text  x="332.35" y="271.5" ></text>
</g>
<g >
<title>[[kernel.kallsyms]] (2 samples, 0.16%)</title><rect x="117.7" y="69" width="1.9" height="15.0" fill="rgb(237,153,29)" rx="2" ry="2" />
<text  x="120.70" y="79.5" ></text>
</g>
<g >
<title>[[kernel.kallsyms]] (14 samples, 1.11%)</title><rect x="75.6" y="197" width="13.1" height="15.0" fill="rgb(211,223,8)" rx="2" ry="2" />
<text  x="78.56" y="207.5" ></text>
</g>
<g >
<title>[[kernel.kallsyms]] (1 samples, 0.08%)</title><rect x="87.7" y="101" width="1.0" height="15.0" fill="rgb(246,12,0)" rx="2" ry="2" />
<text  x="90.73" y="111.5" ></text>
</g>
<g >
<title>[[kernel.kallsyms]] (2 samples, 0.16%)</title><rect x="1188.1" y="133" width="1.9" height="15.0" fill="rgb(205,143,43)" rx="2" ry="2" />
<text  x="1191.13" y="143.5" ></text>
</g>
<g >
<title>[[kernel.kallsyms]] (1 samples, 0.08%)</title><rect x="542.9" y="149" width="0.9" height="15.0" fill="rgb(238,95,8)" rx="2" ry="2" />
<text  x="545.87" y="159.5" ></text>
</g>
<g >
<title>[[kernel.kallsyms]] (7 samples, 0.56%)</title><rect x="529.8" y="181" width="6.5" height="15.0" fill="rgb(212,32,51)" rx="2" ry="2" />
<text  x="532.76" y="191.5" ></text>
</g>
<g >
<title>__GI_____strtod_l_internal (48 samples, 3.81%)</title><rect x="392.1" y="277" width="44.9" height="15.0" fill="rgb(226,34,21)" rx="2" ry="2" />
<text  x="395.10" y="287.5" >__GI..</text>
</g>
<g >
<title>[[kernel.kallsyms]] (2 samples, 0.16%)</title><rect x="1188.1" y="101" width="1.9" height="15.0" fill="rgb(231,186,22)" rx="2" ry="2" />
<text  x="1191.13" y="111.5" ></text>
</g>
<g >
<title>[[kernel.kallsyms]] (9 samples, 0.71%)</title><rect x="1138.5" y="149" width="8.4" height="15.0" fill="rgb(223,52,37)" rx="2" ry="2" />
<text  x="1141.49" y="159.5" ></text>
</g>
<g >
<title>[[kernel.kallsyms]] (2 samples, 0.16%)</title><rect x="98.0" y="117" width="1.9" height="15.0" fill="rgb(220,41,54)" rx="2" ry="2" />
<text  x="101.03" y="127.5" ></text>
</g>
<g >
<title>[[kernel.kallsyms]] (2 samples, 0.16%)</title><rect x="98.0" y="245" width="1.9" height="15.0" fill="rgb(238,112,15)" rx="2" ry="2" />
<text  x="101.03" y="255.5" ></text>
</g>
<g >
<title>[[kernel.kallsyms]] (11 samples, 0.87%)</title><rect x="1136.6" y="181" width="10.3" height="15.0" fill="rgb(220,145,37)" rx="2" ry="2" />
<text  x="1139.62" y="191.5" ></text>
</g>
<g >
<title>_IO_fgets (5 samples, 0.40%)</title><rect x="387.4" y="277" width="4.7" height="15.0" fill="rgb(234,210,31)" rx="2" ry="2" />
<text  x="390.41" y="287.5" ></text>
</g>
<g >
<title>[[kernel.kallsyms]] (1 samples, 0.08%)</title><rect x="554.1" y="261" width="0.9" height="15.0" fill="rgb(244,159,22)" rx="2" ry="2" />
<text  x="557.11" y="271.5" ></text>
</g>
<g >
<title>[[kernel.kallsyms]] (1 samples, 0.08%)</title><rect x="542.9" y="53" width="0.9" height="15.0" fill="rgb(228,57,43)" rx="2" ry="2" />
<text  x="545.87" y="63.5" ></text>
</g>
<g >
<title>[[kernel.kallsyms]] (313 samples, 24.84%)</title><rect x="94.3" y="277" width="293.1" height="15.0" fill="rgb(231,180,26)" rx="2" ry="2" />
<text  x="97.29" y="287.5" >[[kernel.kallsyms]]</text>
</g>
<g >
<title>[[kernel.kallsyms]] (1 samples, 0.08%)</title><rect x="554.1" y="197" width="0.9" height="15.0" fill="rgb(242,68,28)" rx="2" ry="2" />
<text  x="557.11" y="207.5" ></text>
</g>
<g >
<title>perf (2 samples, 0.16%)</title><rect x="1188.1" y="293" width="1.9" height="15.0" fill="rgb(207,80,16)" rx="2" ry="2" />
<text  x="1191.13" y="303.5" ></text>
</g>
<g >
<title>[[kernel.kallsyms]] (12 samples, 0.95%)</title><rect x="1135.7" y="213" width="11.2" height="15.0" fill="rgb(241,184,46)" rx="2" ry="2" />
<text  x="1138.68" y="223.5" ></text>
</g>
<g >
<title>[[kernel.kallsyms]] (1 samples, 0.08%)</title><rect x="542.9" y="69" width="0.9" height="15.0" fill="rgb(233,151,9)" rx="2" ry="2" />
<text  x="545.87" y="79.5" ></text>
</g>
<g >
<title>[[kernel.kallsyms]] (8 samples, 0.63%)</title><rect x="1139.4" y="133" width="7.5" height="15.0" fill="rgb(228,48,22)" rx="2" ry="2" />
<text  x="1142.43" y="143.5" ></text>
</g>
<g >
<title>[[kernel.kallsyms]] (2 samples, 0.16%)</title><rect x="1188.1" y="181" width="1.9" height="15.0" fill="rgb(242,61,49)" rx="2" ry="2" />
<text  x="1191.13" y="191.5" ></text>
</g>
<g >
<title>[[kernel.kallsyms]] (17 samples, 1.35%)</title><rect x="72.7" y="245" width="16.0" height="15.0" fill="rgb(205,15,20)" rx="2" ry="2" />
<text  x="75.75" y="255.5" ></text>
</g>
<g >
<title>[[kernel.kallsyms]] (17 samples, 1.35%)</title><rect x="1131.0" y="261" width="15.9" height="15.0" fill="rgb(208,227,33)" rx="2" ry="2" />
<text  x="1134.00" y="271.5" ></text>
</g>
<g >
<title>[[kernel.kallsyms]] (1 samples, 0.08%)</title><rect x="93.3" y="197" width="1.0" height="15.0" fill="rgb(225,185,22)" rx="2" ry="2" />
<text  x="96.35" y="207.5" ></text>
</g>
<g >
<title>[[kernel.kallsyms]] (1 samples, 0.08%)</title><rect x="93.3" y="149" width="1.0" height="15.0" fill="rgb(206,15,40)" rx="2" ry="2" />
<text  x="96.35" y="159.5" ></text>
</g>
<g >
<title>[[kernel.kallsyms]] (6 samples, 0.48%)</title><rect x="1152.5" y="165" width="5.7" height="15.0" fill="rgb(239,165,36)" rx="2" ry="2" />
<text  x="1155.54" y="175.5" ></text>
</g>
<g >
<title>__memmove_avx_unaligned_erms (106 samples, 8.41%)</title><rect x="437.0" y="277" width="99.3" height="15.0" fill="rgb(228,90,23)" rx="2" ry="2" />
<text  x="440.05" y="287.5" >__memmove_av..</text>
</g>
<g >
<title>[[kernel.kallsyms]] (2 samples, 0.16%)</title><rect x="98.0" y="133" width="1.9" height="15.0" fill="rgb(244,20,11)" rx="2" ry="2" />
<text  x="101.03" y="143.5" ></text>
</g>
<g >
<title>[[kernel.kallsyms]] (2 samples, 0.16%)</title><rect x="98.0" y="197" width="1.9" height="15.0" fill="rgb(219,223,27)" rx="2" ry="2" />
<text  x="101.03" y="207.5" ></text>
</g>
<g >
<title>[[kernel.kallsyms]] (2 samples, 0.16%)</title><rect x="98.0" y="85" width="1.9" height="15.0" fill="rgb(228,19,35)" rx="2" ry="2" />
<text  x="101.03" y="95.5" ></text>
</g>
<g >
<title>ReadSet (89 samples, 7.06%)</title><rect x="10.9" y="277" width="83.4" height="15.0" fill="rgb(226,191,18)" rx="2" ry="2" />
<text  x="13.94" y="287.5" >ReadSet</text>
</g>
<g >
<title>[[kernel.kallsyms]] (2 samples, 0.16%)</title><rect x="117.7" y="181" width="1.9" height="15.0" fill="rgb(217,208,3)" rx="2" ry="2" />
<text  x="120.70" y="191.5" ></text>
</g>
<g >
<title>[[kernel.kallsyms]] (1 samples, 0.08%)</title><rect x="542.9" y="229" width="0.9" height="15.0" fill="rgb(216,125,11)" rx="2" ry="2" />
<text  x="545.87" y="239.5" ></text>
</g>
<g >
<title>[[kernel.kallsyms]] (9 samples, 0.71%)</title><rect x="1149.7" y="245" width="8.5" height="15.0" fill="rgb(229,171,1)" rx="2" ry="2" />
<text  x="1152.73" y="255.5" ></text>
</g>
<g >
<title>[[kernel.kallsyms]] (10 samples, 0.79%)</title><rect x="79.3" y="117" width="9.4" height="15.0" fill="rgb(237,187,46)" rx="2" ry="2" />
<text  x="82.30" y="127.5" ></text>
</g>
<g >
<title>[[kernel.kallsyms]] (2 samples, 0.16%)</title><rect x="117.7" y="117" width="1.9" height="15.0" fill="rgb(215,87,20)" rx="2" ry="2" />
<text  x="120.70" y="127.5" ></text>
</g>
<g >
<title>[[kernel.kallsyms]] (2 samples, 0.16%)</title><rect x="117.7" y="165" width="1.9" height="15.0" fill="rgb(248,146,14)" rx="2" ry="2" />
<text  x="120.70" y="175.5" ></text>
</g>
<g >
<title>__munmap (1 samples, 0.08%)</title><rect x="93.3" y="261" width="1.0" height="15.0" fill="rgb(214,195,37)" rx="2" ry="2" />
<text  x="96.35" y="271.5" ></text>
</g>
<g >
<title>[[kernel.kallsyms]] (14 samples, 1.11%)</title><rect x="75.6" y="165" width="13.1" height="15.0" fill="rgb(244,102,15)" rx="2" ry="2" />
<text  x="78.56" y="175.5" ></text>
</g>
<g >
<title>[[kernel.kallsyms]] (2 samples, 0.16%)</title><rect x="1188.1" y="245" width="1.9" height="15.0" fill="rgb(231,64,50)" rx="2" ry="2" />
<text  x="1191.13" y="255.5" ></text>
</g>
<g >
<title>[[kernel.kallsyms]] (1 samples, 0.08%)</title><rect x="542.9" y="101" width="0.9" height="15.0" fill="rgb(212,54,36)" rx="2" ry="2" />
<text  x="545.87" y="111.5" ></text>
</g>
<g >
<title>__GI_____strtod_l_internal (62 samples, 4.92%)</title><rect x="239.4" y="261" width="58.1" height="15.0" fill="rgb(224,98,1)" rx="2" ry="2" />
<text  x="242.44" y="271.5" >__GI__..</text>
</g>
<g >
<title>[[kernel.kallsyms]] (12 samples, 0.95%)</title><rect x="77.4" y="133" width="11.3" height="15.0" fill="rgb(218,119,5)" rx="2" ry="2" />
<text  x="80.43" y="143.5" ></text>
</g>
<g >
<title>[[kernel.kallsyms]] (1 samples, 0.08%)</title><rect x="93.3" y="245" width="1.0" height="15.0" fill="rgb(231,223,26)" rx="2" ry="2" />
<text  x="96.35" y="255.5" ></text>
</g>
<g >
<title>[[kernel.kallsyms]] (4 samples, 0.32%)</title><rect x="1154.4" y="117" width="3.8" height="15.0" fill="rgb(207,224,23)" rx="2" ry="2" />
<text  x="1157.41" y="127.5" ></text>
</g>
<g >
<title>[[kernel.kallsyms]] (1 samples, 0.08%)</title><rect x="542.9" y="213" width="0.9" height="15.0" fill="rgb(250,41,2)" rx="2" ry="2" />
<text  x="545.87" y="223.5" ></text>
</g>
<g >
<title>[[kernel.kallsyms]] (7 samples, 0.56%)</title><rect x="529.8" y="197" width="6.5" height="15.0" fill="rgb(250,205,29)" rx="2" ry="2" />
<text  x="532.76" y="207.5" ></text>
</g>
<g >
<title>[[kernel.kallsyms]] (5 samples, 0.40%)</title><rect x="531.6" y="149" width="4.7" height="15.0" fill="rgb(248,226,41)" rx="2" ry="2" />
<text  x="534.63" y="159.5" ></text>
</g>
<g >
<title>[[kernel.kallsyms]] (5 samples, 0.40%)</title><rect x="531.6" y="133" width="4.7" height="15.0" fill="rgb(253,180,51)" rx="2" ry="2" />
<text  x="534.63" y="143.5" ></text>
</g>
<g >
<title>[[kernel.kallsyms]] (2 samples, 0.16%)</title><rect x="117.7" y="149" width="1.9" height="15.0" fill="rgb(246,221,13)" rx="2" ry="2" />
<text  x="120.70" y="159.5" ></text>
</g>
<g >
<title>[[kernel.kallsyms]] (2 samples, 0.16%)</title><rect x="98.0" y="149" width="1.9" height="15.0" fill="rgb(221,118,32)" rx="2" ry="2" />
<text  x="101.03" y="159.5" ></text>
</g>
<g >
<title>strtod (2 samples, 0.16%)</title><rect x="1182.5" y="277" width="1.9" height="15.0" fill="rgb(237,114,25)" rx="2" ry="2" />
<text  x="1185.51" y="287.5" ></text>
</g>
<g >
<title>[[kernel.kallsyms]] (1 samples, 0.08%)</title><rect x="93.3" y="181" width="1.0" height="15.0" fill="rgb(226,137,33)" rx="2" ry="2" />
<text  x="96.35" y="191.5" ></text>
</g>
<g >
<title>[[kernel.kallsyms]] (2 samples, 0.16%)</title><rect x="1188.1" y="261" width="1.9" height="15.0" fill="rgb(253,187,17)" rx="2" ry="2" />
<text  x="1191.13" y="271.5" ></text>
</g>
<g >
<title>[[kernel.kallsyms]] (2 samples, 0.16%)</title><rect x="117.7" y="213" width="1.9" height="15.0" fill="rgb(213,44,43)" rx="2" ry="2" />
<text  x="120.70" y="223.5" ></text>
</g>
<g >
<title>[[kernel.kallsyms]] (2 samples, 0.16%)</title><rect x="1188.1" y="277" width="1.9" height="15.0" fill="rgb(213,39,23)" rx="2" ry="2" />
<text  x="1191.13" y="287.5" ></text>
</g>
<g >
<title>_IO_getline (18 samples, 1.43%)</title><rect x="222.6" y="261" width="16.8" height="15.0" fill="rgb(218,72,45)" rx="2" ry="2" />
<text  x="225.59" y="271.5" ></text>
</g>
<g >
<title>[[kernel.kallsyms]] (11 samples, 0.87%)</title><rect x="1136.6" y="197" width="10.3" height="15.0" fill="rgb(225,220,3)" rx="2" ry="2" />
<text  x="1139.62" y="207.5" ></text>
</g>
<g >
<title>[[kernel.kallsyms]] (4 samples, 0.32%)</title><rect x="1143.2" y="117" width="3.7" height="15.0" fill="rgb(234,168,54)" rx="2" ry="2" />
<text  x="1146.17" y="127.5" ></text>
</g>
<g >
<title>[[kernel.kallsyms]] (1 samples, 0.08%)</title><rect x="93.3" y="117" width="1.0" height="15.0" fill="rgb(230,137,5)" rx="2" ry="2" />
<text  x="96.35" y="127.5" ></text>
</g>
<g >
<title>_IO_fgets (37 samples, 2.94%)</title><rect x="187.9" y="261" width="34.7" height="15.0" fill="rgb(249,152,41)" rx="2" ry="2" />
<text  x="190.94" y="271.5" >_I..</text>
</g>
<g >
<title>[[kernel.kallsyms]] (2 samples, 0.16%)</title><rect x="117.7" y="101" width="1.9" height="15.0" fill="rgb(250,153,11)" rx="2" ry="2" />
<text  x="120.70" y="111.5" ></text>
</g>
<g >
<title>[[kernel.kallsyms]] (2 samples, 0.16%)</title><rect x="1188.1" y="213" width="1.9" height="15.0" fill="rgb(208,155,1)" rx="2" ry="2" />
<text  x="1191.13" y="223.5" ></text>
</g>
<g >
<title>round_and_return (27 samples, 2.14%)</title><rect x="352.8" y="261" width="25.2" height="15.0" fill="rgb(234,41,18)" rx="2" ry="2" />
<text  x="355.76" y="271.5" >r..</text>
</g>
<g >
<title>[[kernel.kallsyms]] (11 samples, 0.87%)</title><rect x="1136.6" y="165" width="10.3" height="15.0" fill="rgb(236,192,8)" rx="2" ry="2" />
<text  x="1139.62" y="175.5" ></text>
</g>
<g >
<title>[[kernel.kallsyms]] (1 samples, 0.08%)</title><rect x="535.4" y="101" width="0.9" height="15.0" fill="rgb(223,12,52)" rx="2" ry="2" />
<text  x="538.38" y="111.5" ></text>
</g>
<g >
<title>[[kernel.kallsyms]] (19 samples, 1.51%)</title><rect x="70.9" y="261" width="17.8" height="15.0" fill="rgb(237,118,21)" rx="2" ry="2" />
<text  x="73.87" y="271.5" ></text>
</g>
<g >
<title>[[kernel.kallsyms]] (7 samples, 0.56%)</title><rect x="529.8" y="213" width="6.5" height="15.0" fill="rgb(218,77,28)" rx="2" ry="2" />
<text  x="532.76" y="223.5" ></text>
</g>
<g >
<title>[[kernel.kallsyms]] (1 samples, 0.08%)</title><rect x="554.1" y="245" width="0.9" height="15.0" fill="rgb(245,63,18)" rx="2" ry="2" />
<text  x="557.11" y="255.5" ></text>
</g>
<g >
<title>[[kernel.kallsyms]] (1 samples, 0.08%)</title><rect x="535.4" y="69" width="0.9" height="15.0" fill="rgb(252,188,49)" rx="2" ry="2" />
<text  x="538.38" y="79.5" ></text>
</g>
<g >
<title>[[kernel.kallsyms]] (2 samples, 0.16%)</title><rect x="1188.1" y="85" width="1.9" height="15.0" fill="rgb(250,97,54)" rx="2" ry="2" />
<text  x="1191.13" y="95.5" ></text>
</g>
<g >
<title>__strcspn_sse42 (21 samples, 1.67%)</title><rect x="99.9" y="245" width="19.7" height="15.0" fill="rgb(240,10,15)" rx="2" ry="2" />
<text  x="102.90" y="255.5" ></text>
</g>
<g >
<title>[[kernel.kallsyms]] (1 samples, 0.08%)</title><rect x="554.1" y="213" width="0.9" height="15.0" fill="rgb(250,175,35)" rx="2" ry="2" />
<text  x="557.11" y="223.5" ></text>
</g>
<g >
<title>str_to_mpn.isra.0 (22 samples, 1.75%)</title><rect x="1161.9" y="277" width="20.6" height="15.0" fill="rgb(207,65,45)" rx="2" ry="2" />
<text  x="1164.90" y="287.5" ></text>
</g>
<g >
<title>__memchr_avx2 (34 samples, 2.70%)</title><rect x="297.5" y="261" width="31.8" height="15.0" fill="rgb(228,40,29)" rx="2" ry="2" />
<text  x="300.51" y="271.5" >__..</text>
</g>
<g >
<title>str_to_mpn.isra.0 (10 samples, 0.79%)</title><rect x="378.0" y="261" width="9.4" height="15.0" fill="rgb(239,133,24)" rx="2" ry="2" />
<text  x="381.05" y="271.5" ></text>
</g>
<g >
<title>strtok@plt (1 samples, 0.08%)</title><rect x="1187.2" y="277" width="0.9" height="15.0" fill="rgb(227,22,42)" rx="2" ry="2" />
<text  x="1190.19" y="287.5" ></text>
</g>
<g >
<title>[[kernel.kallsyms]] (98 samples, 7.78%)</title><rect x="96.2" y="261" width="91.7" height="15.0" fill="rgb(234,199,16)" rx="2" ry="2" />
<text  x="99.16" y="271.5" >[[kernel.k..</text>
</g>
<g >
<title>__munmap (1 samples, 0.08%)</title><rect x="542.9" y="277" width="0.9" height="15.0" fill="rgb(221,229,46)" rx="2" ry="2" />
<text  x="545.87" y="287.5" ></text>
</g>
<g >
<title>__strlen_avx2 (4 samples, 0.32%)</title><rect x="543.8" y="277" width="3.8" height="15.0" fill="rgb(218,124,31)" rx="2" ry="2" />
<text  x="546.81" y="287.5" ></text>
</g>
<g >
<title>[[kernel.kallsyms]] (1 samples, 0.08%)</title><rect x="542.9" y="85" width="0.9" height="15.0" fill="rgb(254,9,4)" rx="2" ry="2" />
<text  x="545.87" y="95.5" ></text>
</g>
<g >
<title>[[kernel.kallsyms]] (1 samples, 0.08%)</title><rect x="93.3" y="165" width="1.0" height="15.0" fill="rgb(224,74,6)" rx="2" ry="2" />
<text  x="96.35" y="175.5" ></text>
</g>
<g >
<title>[[kernel.kallsyms]] (1 samples, 0.08%)</title><rect x="542.9" y="245" width="0.9" height="15.0" fill="rgb(212,188,43)" rx="2" ry="2" />
<text  x="545.87" y="255.5" ></text>
</g>
<g >
<title>[[kernel.kallsyms]] (8 samples, 0.63%)</title><rect x="1150.7" y="181" width="7.5" height="15.0" fill="rgb(254,175,10)" rx="2" ry="2" />
<text  x="1153.67" y="191.5" ></text>
</g>
<g >
<title>[[kernel.kallsyms]] (2 samples, 0.16%)</title><rect x="1188.1" y="229" width="1.9" height="15.0" fill="rgb(236,139,51)" rx="2" ry="2" />
<text  x="1191.13" y="239.5" ></text>
</g>
<g >
<title>[[kernel.kallsyms]] (1 samples, 0.08%)</title><rect x="93.3" y="213" width="1.0" height="15.0" fill="rgb(235,148,18)" rx="2" ry="2" />
<text  x="96.35" y="223.5" ></text>
</g>
<g >
<title>[[kernel.kallsyms]] (1 samples, 0.08%)</title><rect x="542.9" y="133" width="0.9" height="15.0" fill="rgb(253,216,12)" rx="2" ry="2" />
<text  x="545.87" y="143.5" ></text>
</g>
<g >
<title>[[kernel.kallsyms]] (1 samples, 0.08%)</title><rect x="535.4" y="85" width="0.9" height="15.0" fill="rgb(207,114,38)" rx="2" ry="2" />
<text  x="538.38" y="95.5" ></text>
</g>
<g >
<title>__mpn_construct_double (11 samples, 0.87%)</title><rect x="342.5" y="261" width="10.3" height="15.0" fill="rgb(210,84,47)" rx="2" ry="2" />
<text  x="345.46" y="271.5" ></text>
</g>
<g >
<title>msort_with_tmp.part.0 (303 samples, 24.05%)</title><rect x="863.2" y="277" width="283.7" height="15.0" fill="rgb(236,86,17)" rx="2" ry="2" />
<text  x="866.16" y="287.5" >msort_with_tmp.part.0</text>
</g>
<g >
<title>[[kernel.kallsyms]] (1 samples, 0.08%)</title><rect x="554.1" y="229" width="0.9" height="15.0" fill="rgb(214,150,35)" rx="2" ry="2" />
<text  x="557.11" y="239.5" ></text>
</g>
<g >
<title>__strtok_r (41 samples, 3.25%)</title><rect x="149.5" y="245" width="38.4" height="15.0" fill="rgb(253,146,34)" rx="2" ry="2" />
<text  x="152.54" y="255.5" >__s..</text>
</g>
<g >
<title>[[kernel.kallsyms]] (1 samples, 0.08%)</title><rect x="542.9" y="117" width="0.9" height="15.0" fill="rgb(228,97,49)" rx="2" ry="2" />
<text  x="545.87" y="127.5" ></text>
</g>
<g >
<title>[[kernel.kallsyms]] (2 samples, 0.16%)</title><rect x="117.7" y="85" width="1.9" height="15.0" fill="rgb(213,66,38)" rx="2" ry="2" />
<text  x="120.70" y="95.5" ></text>
</g>
<g >
<title>[[kernel.kallsyms]] (1 samples, 0.08%)</title><rect x="99.0" y="69" width="0.9" height="15.0" fill="rgb(223,58,38)" rx="2" ry="2" />
<text  x="101.97" y="79.5" ></text>
</g>
<g >
<title>[[kernel.kallsyms]] (2 samples, 0.16%)</title><rect x="98.0" y="165" width="1.9" height="15.0" fill="rgb(245,201,54)" rx="2" ry="2" />
<text  x="101.03" y="175.5" ></text>
</g>
<g >
<title>all (1,260 samples, 100%)</title><rect x="10.0" y="309" width="1180.0" height="15.0" fill="rgb(223,228,0)" rx="2" ry="2" />
<text  x="13.00" y="319.5" ></text>
</g>
<g >
<title>[[kernel.kallsyms]] (1 samples, 0.08%)</title><rect x="542.9" y="197" width="0.9" height="15.0" fill="rgb(253,40,51)" rx="2" ry="2" />
<text  x="545.87" y="207.5" ></text>
</g>
<g >
<title>[[kernel.kallsyms]] (12 samples, 0.95%)</title><rect x="1146.9" y="261" width="11.3" height="15.0" fill="rgb(249,74,48)" rx="2" ry="2" />
<text  x="1149.92" y="271.5" ></text>
</g>
<g >
<title>[[kernel.kallsyms]] (2 samples, 0.16%)</title><rect x="117.7" y="53" width="1.9" height="15.0" fill="rgb(208,58,10)" rx="2" ry="2" />
<text  x="120.70" y="63.5" ></text>
</g>
<g >
<title>[[kernel.kallsyms]] (2 samples, 0.16%)</title><rect x="1188.1" y="117" width="1.9" height="15.0" fill="rgb(208,203,51)" rx="2" ry="2" />
<text  x="1191.13" y="127.5" ></text>
</g>
<g >
<title>[[kernel.kallsyms]] (1 samples, 0.08%)</title><rect x="554.1" y="181" width="0.9" height="15.0" fill="rgb(220,116,17)" rx="2" ry="2" />
<text  x="557.11" y="191.5" ></text>
</g>
<g >
<title>[[kernel.kallsyms]] (7 samples, 0.56%)</title><rect x="529.8" y="229" width="6.5" height="15.0" fill="rgb(215,117,38)" rx="2" ry="2" />
<text  x="532.76" y="239.5" ></text>
</g>
<g >
<title>@plt (2 samples, 0.16%)</title><rect x="96.2" y="245" width="1.8" height="15.0" fill="rgb(222,211,47)" rx="2" ry="2" />
<text  x="99.16" y="255.5" ></text>
</g>
<g >
<title>[[kernel.kallsyms]] (7 samples, 0.56%)</title><rect x="529.8" y="165" width="6.5" height="15.0" fill="rgb(240,93,0)" rx="2" ry="2" />
<text  x="532.76" y="175.5" ></text>
</g>
<g >
<title>[[kernel.kallsyms]] (2 samples, 0.16%)</title><rect x="117.7" y="133" width="1.9" height="15.0" fill="rgb(217,134,48)" rx="2" ry="2" />
<text  x="120.70" y="143.5" ></text>
</g>
<g >
<title>[[kernel.kallsyms]] (2 samples, 0.16%)</title><rect x="117.7" y="229" width="1.9" height="15.0" fill="rgb(219,229,51)" rx="2" ry="2" />
<text  x="120.70" y="239.5" ></text>
</g>
<g >
<title>[[kernel.kallsyms]] (1 samples, 0.08%)</title><rect x="99.0" y="37" width="0.9" height="15.0" fill="rgb(212,90,47)" rx="2" ry="2" />
<text  x="101.97" y="47.5" ></text>
</g>
<g >
<title>__strtok_r (8 samples, 0.63%)</title><rect x="547.6" y="277" width="7.4" height="15.0" fill="rgb(226,142,0)" rx="2" ry="2" />
<text  x="550.56" y="287.5" ></text>
</g>
<g >
<title>[[kernel.kallsyms]] (13 samples, 1.03%)</title><rect x="76.5" y="149" width="12.2" height="15.0" fill="rgb(222,55,35)" rx="2" ry="2" />
<text  x="79.49" y="159.5" ></text>
</g>
<g >
<title>[[kernel.kallsyms]] (12 samples, 0.95%)</title><rect x="1135.7" y="229" width="11.2" height="15.0" fill="rgb(217,44,22)" rx="2" ry="2" />
<text  x="1138.68" y="239.5" ></text>
</g>
<g >
<title>read (12 samples, 0.95%)</title><rect x="1146.9" y="277" width="11.3" height="15.0" fill="rgb(226,61,41)" rx="2" ry="2" />
<text  x="1149.92" y="287.5" ></text>
</g>
<g >
<title>[[kernel.kallsyms]] (2 samples, 0.16%)</title><rect x="98.0" y="213" width="1.9" height="15.0" fill="rgb(229,209,51)" rx="2" ry="2" />
<text  x="101.03" y="223.5" ></text>
</g>
<g >
<title>__mpn_lshift (7 samples, 0.56%)</title><rect x="536.3" y="277" width="6.6" height="15.0" fill="rgb(206,123,15)" rx="2" ry="2" />
<text  x="539.32" y="287.5" ></text>
</g>
</g>
</svg>
