<?xml version="1.0" standalone="no"?>
<!DOCTYPE svg PUBLIC "-//W3C//DTD SVG 1.1//EN" "http://www.w3.org/Graphics/SVG/1.1/DTD/svg11.dtd">
<svg version="1.1" width="1200" height="454" onload="init(evt)" viewBox="0 0 1200 454" xmlns="http://www.w3.org/2000/svg" xmlns:xlink="http://www.w3.org/1999/xlink">
<!-- Flame graph stack visualization. See https://github.com/brendangregg/FlameGraph for latest version, and http://www.brendangregg.com/flamegraphs.html for examples. -->
<!-- NOTES:  -->
<defs>
	<linearGradient id="background" y1="0" y2="1" x1="0" x2="0" >
		<stop stop-color="#eeeeee" offset="5%" />
		<stop stop-color="#eeeeb0" offset="95%" />
	</linearGradient>
</defs>
<style type="text/css">
	text { font-family:Verdana; font-size:12px; fill:rgb(0,0,0); }
	#search, #ignorecase { opacity:0.1; cursor:pointer; }
	#search:hover, #search.show, #ignorecase:hover, #ignorecase.show { opacity:1; }
	#subtitle { text-anchor:middle; font-color:rgb(160,160,160); }
	#title { text-anchor:middle; font-size:17px}
	#unzoom { cursor:pointer; }
	#frames > *:hover { stroke:black; stroke-width:0.5; cursor:pointer; }
	.hide { display:none; }
	.parent { opacity:0.5; }
</style>
<script type="text/ecmascript">
<![CDATA[
	"use strict";
	var details, searchbtn, unzoombtn, matchedtxt, svg, searching, currentSearchTerm, ignorecase, ignorecaseBtn;
	function init(evt) {
		details = document.getElementById("details").firstChild;
		searchbtn = document.getElementById("search");
		ignorecaseBtn = document.getElementById("ignorecase");
		unzoombtn = document.getElementById("unzoom");
		matchedtxt = document.getElementById("matched");
		svg = document.getElementsByTagName("svg")[0];
		searching = 0;
		currentSearchTerm = null;
	}

	window.addEventListener("click", function(e) {
		var target = find_group(e.target);
		if (target) {
			if (target.nodeName == "a") {
				if (e.ctrlKey === false) return;
				e.preventDefault();
			}
			if (target.classList.contains("parent")) unzoom();
			zoom(target);
		}
		else if (e.target.id == "unzoom") unzoom();
		else if (e.target.id == "search") search_prompt();
		else if (e.target.id == "ignorecase") toggle_ignorecase();
	}, false)

	// mouse-over for info
	// show
	window.addEventListener("mouseover", function(e) {
		var target = find_group(e.target);
		if (target) details.nodeValue = "Function: " + g_to_text(target);
	}, false)

	// clear
	window.addEventListener("mouseout", function(e) {
		var target = find_group(e.target);
		if (target) details.nodeValue = ' ';
	}, false)

	// ctrl-F for search
	window.addEventListener("keydown",function (e) {
		if (e.keyCode === 114 || (e.ctrlKey && e.keyCode === 70)) {
			e.preventDefault();
			search_prompt();
		}
	}, false)

	// ctrl-I to toggle case-sensitive search
	window.addEventListener("keydown",function (e) {
		if (e.ctrlKey && e.keyCode === 73) {
			e.preventDefault();
			toggle_ignorecase();
		}
	}, false)

	// functions
	function find_child(node, selector) {
		var children = node.querySelectorAll(selector);
		if (children.length) return children[0];
		return;
	}
	function find_group(node) {
		var parent = node.parentElement;
		if (!parent) return;
		if (parent.id == "frames") return node;
		return find_group(parent);
	}
	function orig_save(e, attr, val) {
		if (e.attributes["_orig_" + attr] != undefined) return;
		if (e.attributes[attr] == undefined) return;
		if (val == undefined) val = e.attributes[attr].value;
		e.setAttribute("_orig_" + attr, val);
	}
	function orig_load(e, attr) {
		if (e.attributes["_orig_"+attr] == undefined) return;
		e.attributes[attr].value = e.attributes["_orig_" + attr].value;
		e.removeAttribute("_orig_"+attr);
	}
	function g_to_text(e) {
		var text = find_child(e, "title").firstChild.nodeValue;
		return (text)
	}
	function g_to_func(e) {
		var func = g_to_text(e);
		// if there's any manipulation we want to do to the function
		// name before it's searched, do it here before returning.
		return (func);
	}
	function update_text(e) {
		var r = find_child(e, "rect");
		var t = find_child(e, "text");
		var w = parseFloat(r.attributes.width.value) -3;
		var txt = find_child(e, "title").textContent.replace(/\([^(]*\)$/,"");
		t.attributes.x.value = parseFloat(r.attributes.x.value) + 3;

		// Smaller than this size won't fit anything
		if (w < 2 * 12 * 0.59) {
			t.textContent = "";
			return;
		}

		t.textContent = txt;
		// Fit in full text width
		if (/^ *$/.test(txt) || t.getSubStringLength(0, txt.length) < w)
			return;

		for (var x = txt.length - 2; x > 0; x--) {
			if (t.getSubStringLength(0, x + 2) <= w) {
				t.textContent = txt.substring(0, x) + "..";
				return;
			}
		}
		t.textContent = "";
	}

	// zoom
	function zoom_reset(e) {
		if (e.attributes != undefined) {
			orig_load(e, "x");
			orig_load(e, "width");
		}
		if (e.childNodes == undefined) return;
		for (var i = 0, c = e.childNodes; i < c.length; i++) {
			zoom_reset(c[i]);
		}
	}
	function zoom_child(e, x, ratio) {
		if (e.attributes != undefined) {
			if (e.attributes.x != undefined) {
				orig_save(e, "x");
				e.attributes.x.value = (parseFloat(e.attributes.x.value) - x - 10) * ratio + 10;
				if (e.tagName == "text")
					e.attributes.x.value = find_child(e.parentNode, "rect[x]").attributes.x.value + 3;
			}
			if (e.attributes.width != undefined) {
				orig_save(e, "width");
				e.attributes.width.value = parseFloat(e.attributes.width.value) * ratio;
			}
		}

		if (e.childNodes == undefined) return;
		for (var i = 0, c = e.childNodes; i < c.length; i++) {
			zoom_child(c[i], x - 10, ratio);
		}
	}
	function zoom_parent(e) {
		if (e.attributes) {
			if (e.attributes.x != undefined) {
				orig_save(e, "x");
				e.attributes.x.value = 10;
			}
			if (e.attributes.width != undefined) {
				orig_save(e, "width");
				e.attributes.width.value = parseInt(svg.width.baseVal.value) - (10 * 2);
			}
		}
		if (e.childNodes == undefined) return;
		for (var i = 0, c = e.childNodes; i < c.length; i++) {
			zoom_parent(c[i]);
		}
	}
	function zoom(node) {
		var attr = find_child(node, "rect").attributes;
		var width = parseFloat(attr.width.value);
		var xmin = parseFloat(attr.x.value);
		var xmax = parseFloat(xmin + width);
		var ymin = parseFloat(attr.y.value);
		var ratio = (svg.width.baseVal.value - 2 * 10) / width;

		// XXX: Workaround for JavaScript float issues (fix me)
		var fudge = 0.0001;

		unzoombtn.classList.remove("hide");

		var el = document.getElementById("frames").children;
		for (var i = 0; i < el.length; i++) {
			var e = el[i];
			var a = find_child(e, "rect").attributes;
			var ex = parseFloat(a.x.value);
			var ew = parseFloat(a.width.value);
			var upstack;
			// Is it an ancestor
			if (0 == 0) {
				upstack = parseFloat(a.y.value) > ymin;
			} else {
				upstack = parseFloat(a.y.value) < ymin;
			}
			if (upstack) {
				// Direct ancestor
				if (ex <= xmin && (ex+ew+fudge) >= xmax) {
					e.classList.add("parent");
					zoom_parent(e);
					update_text(e);
				}
				// not in current path
				else
					e.classList.add("hide");
			}
			// Children maybe
			else {
				// no common path
				if (ex < xmin || ex + fudge >= xmax) {
					e.classList.add("hide");
				}
				else {
					zoom_child(e, xmin, ratio);
					update_text(e);
				}
			}
		}
		search();
	}
	function unzoom() {
		unzoombtn.classList.add("hide");
		var el = document.getElementById("frames").children;
		for(var i = 0; i < el.length; i++) {
			el[i].classList.remove("parent");
			el[i].classList.remove("hide");
			zoom_reset(el[i]);
			update_text(el[i]);
		}
		search();
	}

	// search
	function toggle_ignorecase() {
		ignorecase = !ignorecase;
		if (ignorecase) {
			ignorecaseBtn.classList.add("show");
		} else {
			ignorecaseBtn.classList.remove("show");
		}
		reset_search();
		search();
	}
	function reset_search() {
		var el = document.querySelectorAll("#frames rect");
		for (var i = 0; i < el.length; i++) {
			orig_load(el[i], "fill")
		}
	}
	function search_prompt() {
		if (!searching) {
			var term = prompt("Enter a search term (regexp " +
			    "allowed, eg: ^ext4_)"
			    + (ignorecase ? ", ignoring case" : "")
			    + "\nPress Ctrl-i to toggle case sensitivity", "");
			if (term != null) {
				currentSearchTerm = term;
				search();
			}
		} else {
			reset_search();
			searching = 0;
			currentSearchTerm = null;
			searchbtn.classList.remove("show");
			searchbtn.firstChild.nodeValue = "Search"
			matchedtxt.classList.add("hide");
			matchedtxt.firstChild.nodeValue = ""
		}
	}
	function search(term) {
		if (currentSearchTerm === null) return;
		var term = currentSearchTerm;

		var re = new RegExp(term, ignorecase ? 'i' : '');
		var el = document.getElementById("frames").children;
		var matches = new Object();
		var maxwidth = 0;
		for (var i = 0; i < el.length; i++) {
			var e = el[i];
			var func = g_to_func(e);
			var rect = find_child(e, "rect");
			if (func == null || rect == null)
				continue;

			// Save max width. Only works as we have a root frame
			var w = parseFloat(rect.attributes.width.value);
			if (w > maxwidth)
				maxwidth = w;

			if (func.match(re)) {
				// highlight
				var x = parseFloat(rect.attributes.x.value);
				orig_save(rect, "fill");
				rect.attributes.fill.value = "rgb(230,0,230)";

				// remember matches
				if (matches[x] == undefined) {
					matches[x] = w;
				} else {
					if (w > matches[x]) {
						// overwrite with parent
						matches[x] = w;
					}
				}
				searching = 1;
			}
		}
		if (!searching)
			return;

		searchbtn.classList.add("show");
		searchbtn.firstChild.nodeValue = "Reset Search";

		// calculate percent matched, excluding vertical overlap
		var count = 0;
		var lastx = -1;
		var lastw = 0;
		var keys = Array();
		for (k in matches) {
			if (matches.hasOwnProperty(k))
				keys.push(k);
		}
		// sort the matched frames by their x location
		// ascending, then width descending
		keys.sort(function(a, b){
			return a - b;
		});
		// Step through frames saving only the biggest bottom-up frames
		// thanks to the sort order. This relies on the tree property
		// where children are always smaller than their parents.
		var fudge = 0.0001;	// JavaScript floating point
		for (var k in keys) {
			var x = parseFloat(keys[k]);
			var w = matches[keys[k]];
			if (x >= lastx + lastw - fudge) {
				count += w;
				lastx = x;
				lastw = w;
			}
		}
		// display matched percent
		matchedtxt.classList.remove("hide");
		var pct = 100 * count / maxwidth;
		if (pct != 100) pct = pct.toFixed(1)
		matchedtxt.firstChild.nodeValue = "Matched: " + pct + "%";
	}
]]>
</script>
<rect x="0.0" y="0" width="1200.0" height="454.0" fill="url(#background)"  />
<text id="title" x="600.00" y="24" >Flame Graph</text>
<text id="details" x="10.00" y="437" > </text>
<text id="unzoom" x="10.00" y="24" class="hide">Reset Zoom</text>
<text id="search" x="1090.00" y="24" >Search</text>
<text id="ignorecase" x="1174.00" y="24" >ic</text>
<text id="matched" x="1090.00" y="437" > </text>
<g id="frames">
<g >
<title>dbl_cmp (679 samples, 41.38%)</title><rect x="671.5" y="357" width="488.3" height="15.0" fill="rgb(246,76,27)" rx="2" ry="2" />
<text  x="674.55" y="367.5" >dbl_cmp</text>
</g>
<g >
<title>[[kernel.kallsyms]] (2 samples, 0.12%)</title><rect x="1188.6" y="69" width="1.4" height="15.0" fill="rgb(214,174,27)" rx="2" ry="2" />
<text  x="1191.56" y="79.5" ></text>
</g>
<g >
<title>[[kernel.kallsyms]] (1 samples, 0.06%)</title><rect x="278.9" y="309" width="0.8" height="15.0" fill="rgb(214,204,22)" rx="2" ry="2" />
<text  x="281.93" y="319.5" ></text>
</g>
<g >
<title>[[kernel.kallsyms]] (1 samples, 0.06%)</title><rect x="1159.1" y="309" width="0.7" height="15.0" fill="rgb(228,152,15)" rx="2" ry="2" />
<text  x="1162.08" y="319.5" ></text>
</g>
<g >
<title>[[kernel.kallsyms]] (3 samples, 0.18%)</title><rect x="217.1" y="165" width="2.2" height="15.0" fill="rgb(246,128,12)" rx="2" ry="2" />
<text  x="220.09" y="175.5" ></text>
</g>
<g >
<title>[[kernel.kallsyms]] (5 samples, 0.30%)</title><rect x="1162.7" y="261" width="3.6" height="15.0" fill="rgb(233,57,12)" rx="2" ry="2" />
<text  x="1165.68" y="271.5" ></text>
</g>
<g >
<title>[[kernel.kallsyms]] (2 samples, 0.12%)</title><rect x="215.7" y="165" width="1.4" height="15.0" fill="rgb(236,179,27)" rx="2" ry="2" />
<text  x="218.66" y="175.5" ></text>
</g>
<g >
<title>[[kernel.kallsyms]] (1 samples, 0.06%)</title><rect x="11.4" y="213" width="0.8" height="15.0" fill="rgb(251,212,16)" rx="2" ry="2" />
<text  x="14.44" y="223.5" ></text>
</g>
<g >
<title>round_and_return (6 samples, 0.37%)</title><rect x="1166.3" y="373" width="4.3" height="15.0" fill="rgb(235,145,18)" rx="2" ry="2" />
<text  x="1169.27" y="383.5" ></text>
</g>
<g >
<title>[[kernel.kallsyms]] (1 samples, 0.06%)</title><rect x="1183.5" y="261" width="0.7" height="15.0" fill="rgb(216,141,29)" rx="2" ry="2" />
<text  x="1186.53" y="271.5" ></text>
</g>
<g >
<title>[[kernel.kallsyms]] (8 samples, 0.49%)</title><rect x="1184.2" y="325" width="5.8" height="15.0" fill="rgb(210,109,16)" rx="2" ry="2" />
<text  x="1187.25" y="335.5" ></text>
</g>
<g >
<title>[[kernel.kallsyms]] (1 samples, 0.06%)</title><rect x="1159.1" y="325" width="0.7" height="15.0" fill="rgb(216,66,43)" rx="2" ry="2" />
<text  x="1162.08" y="335.5" ></text>
</g>
<g >
<title>perf (8 samples, 0.49%)</title><rect x="1184.2" y="389" width="5.8" height="15.0" fill="rgb(227,94,33)" rx="2" ry="2" />
<text  x="1187.25" y="399.5" ></text>
</g>
<g >
<title>[[kernel.kallsyms]] (1 samples, 0.06%)</title><rect x="1183.5" y="229" width="0.7" height="15.0" fill="rgb(250,161,12)" rx="2" ry="2" />
<text  x="1186.53" y="239.5" ></text>
</g>
<g >
<title>AddPoint (1 samples, 0.06%)</title><rect x="130.8" y="325" width="0.7" height="15.0" fill="rgb(226,220,27)" rx="2" ry="2" />
<text  x="133.80" y="335.5" ></text>
</g>
<g >
<title>[[kernel.kallsyms]] (1 samples, 0.06%)</title><rect x="1183.5" y="357" width="0.7" height="15.0" fill="rgb(209,85,31)" rx="2" ry="2" />
<text  x="1186.53" y="367.5" ></text>
</g>
<g >
<title>[[kernel.kallsyms]] (1 samples, 0.06%)</title><rect x="1183.5" y="309" width="0.7" height="15.0" fill="rgb(205,88,0)" rx="2" ry="2" />
<text  x="1186.53" y="319.5" ></text>
</g>
<g >
<title>[[kernel.kallsyms]] (8 samples, 0.49%)</title><rect x="1184.2" y="181" width="5.8" height="15.0" fill="rgb(246,151,54)" rx="2" ry="2" />
<text  x="1187.25" y="191.5" ></text>
</g>
<g >
<title>[[kernel.kallsyms]] (14 samples, 0.85%)</title><rect x="661.5" y="325" width="10.0" height="15.0" fill="rgb(248,228,3)" rx="2" ry="2" />
<text  x="664.48" y="335.5" ></text>
</g>
<g >
<title>[[kernel.kallsyms]] (8 samples, 0.49%)</title><rect x="1184.2" y="277" width="5.8" height="15.0" fill="rgb(253,71,37)" rx="2" ry="2" />
<text  x="1187.25" y="287.5" ></text>
</g>
<g >
<title>[[kernel.kallsyms]] (6 samples, 0.37%)</title><rect x="1162.0" y="277" width="4.3" height="15.0" fill="rgb(214,135,25)" rx="2" ry="2" />
<text  x="1164.96" y="287.5" ></text>
</g>
<g >
<title>all (1,641 samples, 100%)</title><rect x="10.0" y="405" width="1180.0" height="15.0" fill="rgb(208,15,42)" rx="2" ry="2" />
<text  x="13.00" y="415.5" ></text>
</g>
<g >
<title>[[kernel.kallsyms]] (6 samples, 0.37%)</title><rect x="201.3" y="197" width="4.3" height="15.0" fill="rgb(232,32,23)" rx="2" ry="2" />
<text  x="204.27" y="207.5" ></text>
</g>
<g >
<title>[[kernel.kallsyms]] (1 samples, 0.06%)</title><rect x="130.1" y="261" width="0.7" height="15.0" fill="rgb(225,133,25)" rx="2" ry="2" />
<text  x="133.09" y="271.5" ></text>
</g>
<g >
<title>[[kernel.kallsyms]] (3 samples, 0.18%)</title><rect x="217.1" y="181" width="2.2" height="15.0" fill="rgb(236,176,21)" rx="2" ry="2" />
<text  x="220.09" y="191.5" ></text>
</g>
<g >
<title>[[kernel.kallsyms]] (3 samples, 0.18%)</title><rect x="217.1" y="293" width="2.2" height="15.0" fill="rgb(208,142,11)" rx="2" ry="2" />
<text  x="220.09" y="303.5" ></text>
</g>
<g >
<title>[[kernel.kallsyms]] (3 samples, 0.18%)</title><rect x="10.0" y="293" width="2.2" height="15.0" fill="rgb(227,24,54)" rx="2" ry="2" />
<text  x="13.00" y="303.5" ></text>
</g>
<g >
<title>[[kernel.kallsyms]] (1 samples, 0.06%)</title><rect x="130.1" y="277" width="0.7" height="15.0" fill="rgb(254,64,33)" rx="2" ry="2" />
<text  x="133.09" y="287.5" ></text>
</g>
<g >
<title>__mpn_construct_double (15 samples, 0.91%)</title><rect x="311.3" y="357" width="10.8" height="15.0" fill="rgb(221,117,25)" rx="2" ry="2" />
<text  x="314.29" y="367.5" ></text>
</g>
<g >
<title>[[kernel.kallsyms]] (6 samples, 0.37%)</title><rect x="1185.7" y="149" width="4.3" height="15.0" fill="rgb(211,129,38)" rx="2" ry="2" />
<text  x="1188.69" y="159.5" ></text>
</g>
<g >
<title>[[kernel.kallsyms]] (6 samples, 0.37%)</title><rect x="201.3" y="229" width="4.3" height="15.0" fill="rgb(222,220,41)" rx="2" ry="2" />
<text  x="204.27" y="239.5" ></text>
</g>
<g >
<title>[[kernel.kallsyms]] (5 samples, 0.30%)</title><rect x="1186.4" y="117" width="3.6" height="15.0" fill="rgb(247,68,10)" rx="2" ry="2" />
<text  x="1189.40" y="127.5" ></text>
</g>
<g >
<title>_IO_fgets (23 samples, 1.40%)</title><rect x="59.6" y="357" width="16.6" height="15.0" fill="rgb(239,62,54)" rx="2" ry="2" />
<text  x="62.62" y="367.5" ></text>
</g>
<g >
<title>[[kernel.kallsyms]] (8 samples, 0.49%)</title><rect x="1184.2" y="165" width="5.8" height="15.0" fill="rgb(212,58,15)" rx="2" ry="2" />
<text  x="1187.25" y="175.5" ></text>
</g>
<g >
<title>__memchr_avx2 (23 samples, 1.40%)</title><rect x="279.7" y="357" width="16.5" height="15.0" fill="rgb(211,109,28)" rx="2" ry="2" />
<text  x="282.65" y="367.5" ></text>
</g>
<g >
<title>_IO_getline (18 samples, 1.10%)</title><rect x="76.2" y="357" width="12.9" height="15.0" fill="rgb(243,46,38)" rx="2" ry="2" />
<text  x="79.15" y="367.5" ></text>
</g>
<g >
<title>strtod@plt (2 samples, 0.12%)</title><rect x="278.2" y="325" width="1.5" height="15.0" fill="rgb(240,2,30)" rx="2" ry="2" />
<text  x="281.21" y="335.5" ></text>
</g>
<g >
<title>__memmove_avx_unaligned_erms (21 samples, 1.28%)</title><rect x="296.2" y="357" width="15.1" height="15.0" fill="rgb(230,76,0)" rx="2" ry="2" />
<text  x="299.19" y="367.5" ></text>
</g>
<g >
<title>[[kernel.kallsyms]] (10 samples, 0.61%)</title><rect x="664.4" y="229" width="7.1" height="15.0" fill="rgb(242,216,2)" rx="2" ry="2" />
<text  x="667.36" y="239.5" ></text>
</g>
<g >
<title>AddPoint (39 samples, 2.38%)</title><rect x="177.5" y="309" width="28.1" height="15.0" fill="rgb(221,148,51)" rx="2" ry="2" />
<text  x="180.54" y="319.5" >A..</text>
</g>
<g >
<title>[[kernel.kallsyms]] (7 samples, 0.43%)</title><rect x="212.1" y="293" width="5.0" height="15.0" fill="rgb(205,7,16)" rx="2" ry="2" />
<text  x="215.06" y="303.5" ></text>
</g>
<g >
<title>[[kernel.kallsyms]] (3 samples, 0.18%)</title><rect x="10.0" y="261" width="2.2" height="15.0" fill="rgb(208,5,38)" rx="2" ry="2" />
<text  x="13.00" y="271.5" ></text>
</g>
<g >
<title>[[kernel.kallsyms]] (8 samples, 0.49%)</title><rect x="1184.2" y="261" width="5.8" height="15.0" fill="rgb(216,223,41)" rx="2" ry="2" />
<text  x="1187.25" y="271.5" ></text>
</g>
<g >
<title>[[kernel.kallsyms]] (69 samples, 4.20%)</title><rect x="10.0" y="357" width="49.6" height="15.0" fill="rgb(213,177,41)" rx="2" ry="2" />
<text  x="13.00" y="367.5" >[[ker..</text>
</g>
<g >
<title>[[kernel.kallsyms]] (3 samples, 0.18%)</title><rect x="217.1" y="229" width="2.2" height="15.0" fill="rgb(250,118,22)" rx="2" ry="2" />
<text  x="220.09" y="239.5" ></text>
</g>
<g >
<title>[[kernel.kallsyms]] (9 samples, 0.55%)</title><rect x="1159.8" y="357" width="6.5" height="15.0" fill="rgb(244,108,22)" rx="2" ry="2" />
<text  x="1162.80" y="367.5" ></text>
</g>
<g >
<title>[[kernel.kallsyms]] (10 samples, 0.61%)</title><rect x="664.4" y="245" width="7.1" height="15.0" fill="rgb(234,141,23)" rx="2" ry="2" />
<text  x="667.36" y="255.5" ></text>
</g>
<g >
<title>[[kernel.kallsyms]] (3 samples, 0.18%)</title><rect x="1164.1" y="229" width="2.2" height="15.0" fill="rgb(252,94,52)" rx="2" ry="2" />
<text  x="1167.11" y="239.5" ></text>
</g>
<g >
<title>[[kernel.kallsyms]] (6 samples, 0.37%)</title><rect x="1185.7" y="133" width="4.3" height="15.0" fill="rgb(243,76,14)" rx="2" ry="2" />
<text  x="1188.69" y="143.5" ></text>
</g>
<g >
<title>[[kernel.kallsyms]] (8 samples, 0.49%)</title><rect x="1184.2" y="341" width="5.8" height="15.0" fill="rgb(233,178,30)" rx="2" ry="2" />
<text  x="1187.25" y="351.5" ></text>
</g>
<g >
<title>[[kernel.kallsyms]] (3 samples, 0.18%)</title><rect x="217.1" y="197" width="2.2" height="15.0" fill="rgb(250,37,52)" rx="2" ry="2" />
<text  x="220.09" y="207.5" ></text>
</g>
<g >
<title>[[kernel.kallsyms]] (1 samples, 0.06%)</title><rect x="1183.5" y="325" width="0.7" height="15.0" fill="rgb(254,50,0)" rx="2" ry="2" />
<text  x="1186.53" y="335.5" ></text>
</g>
<g >
<title>__strlen_avx2 (39 samples, 2.38%)</title><rect x="245.9" y="325" width="28.0" height="15.0" fill="rgb(245,3,17)" rx="2" ry="2" />
<text  x="248.86" y="335.5" >_..</text>
</g>
<g >
<title>[[kernel.kallsyms]] (3 samples, 0.18%)</title><rect x="217.1" y="117" width="2.2" height="15.0" fill="rgb(250,53,46)" rx="2" ry="2" />
<text  x="220.09" y="127.5" ></text>
</g>
<g >
<title>__strsep_g (13 samples, 0.79%)</title><rect x="50.3" y="341" width="9.3" height="15.0" fill="rgb(248,176,8)" rx="2" ry="2" />
<text  x="53.27" y="351.5" ></text>
</g>
<g >
<title>__memmove_avx_unaligned_erms (96 samples, 5.85%)</title><rect x="369.5" y="373" width="69.1" height="15.0" fill="rgb(245,171,34)" rx="2" ry="2" />
<text  x="372.54" y="383.5" >__memmo..</text>
</g>
<g >
<title>dbl_cmp (87 samples, 5.30%)</title><rect x="445.0" y="373" width="62.6" height="15.0" fill="rgb(209,217,9)" rx="2" ry="2" />
<text  x="448.04" y="383.5" >dbl_cmp</text>
</g>
<g >
<title>[[kernel.kallsyms]] (3 samples, 0.18%)</title><rect x="217.1" y="149" width="2.2" height="15.0" fill="rgb(221,53,7)" rx="2" ry="2" />
<text  x="220.09" y="159.5" ></text>
</g>
<g >
<title>[[kernel.kallsyms]] (477 samples, 29.07%)</title><rect x="10.0" y="373" width="343.0" height="15.0" fill="rgb(251,59,34)" rx="2" ry="2" />
<text  x="13.00" y="383.5" >[[kernel.kallsyms]]</text>
</g>
<g >
<title>[[kernel.kallsyms]] (3 samples, 0.18%)</title><rect x="10.0" y="277" width="2.2" height="15.0" fill="rgb(211,40,49)" rx="2" ry="2" />
<text  x="13.00" y="287.5" ></text>
</g>
<g >
<title>[[kernel.kallsyms]] (3 samples, 0.18%)</title><rect x="214.9" y="213" width="2.2" height="15.0" fill="rgb(238,82,0)" rx="2" ry="2" />
<text  x="217.94" y="223.5" ></text>
</g>
<g >
<title>__GI_____strtod_l_internal (23 samples, 1.40%)</title><rect x="353.0" y="373" width="16.5" height="15.0" fill="rgb(219,193,18)" rx="2" ry="2" />
<text  x="356.00" y="383.5" ></text>
</g>
<g >
<title>[[kernel.kallsyms]] (16 samples, 0.98%)</title><rect x="660.0" y="341" width="11.5" height="15.0" fill="rgb(252,116,15)" rx="2" ry="2" />
<text  x="663.04" y="351.5" ></text>
</g>
<g >
<title>__GI_____strtod_l_internal (58 samples, 3.53%)</title><rect x="89.1" y="357" width="41.7" height="15.0" fill="rgb(253,49,32)" rx="2" ry="2" />
<text  x="92.10" y="367.5" >__G..</text>
</g>
<g >
<title>[[kernel.kallsyms]] (3 samples, 0.18%)</title><rect x="217.1" y="101" width="2.2" height="15.0" fill="rgb(237,165,40)" rx="2" ry="2" />
<text  x="220.09" y="111.5" ></text>
</g>
<g >
<title>_IO_fgets (6 samples, 0.37%)</title><rect x="219.3" y="325" width="4.3" height="15.0" fill="rgb(214,229,45)" rx="2" ry="2" />
<text  x="222.25" y="335.5" ></text>
</g>
<g >
<title>main (207 samples, 12.61%)</title><rect x="130.8" y="341" width="148.9" height="15.0" fill="rgb(216,34,46)" rx="2" ry="2" />
<text  x="133.80" y="351.5" >main</text>
</g>
<g >
<title>[[kernel.kallsyms]] (2 samples, 0.12%)</title><rect x="215.7" y="181" width="1.4" height="15.0" fill="rgb(248,47,48)" rx="2" ry="2" />
<text  x="218.66" y="191.5" ></text>
</g>
<g >
<title>[[kernel.kallsyms]] (2 samples, 0.12%)</title><rect x="1188.6" y="53" width="1.4" height="15.0" fill="rgb(229,182,9)" rx="2" ry="2" />
<text  x="1191.56" y="63.5" ></text>
</g>
<g >
<title>[[kernel.kallsyms]] (4 samples, 0.24%)</title><rect x="202.7" y="181" width="2.9" height="15.0" fill="rgb(229,111,3)" rx="2" ry="2" />
<text  x="205.71" y="191.5" ></text>
</g>
<g >
<title>[[kernel.kallsyms]] (3 samples, 0.18%)</title><rect x="10.0" y="245" width="2.2" height="15.0" fill="rgb(251,194,9)" rx="2" ry="2" />
<text  x="13.00" y="255.5" ></text>
</g>
<g >
<title>[[kernel.kallsyms]] (20 samples, 1.22%)</title><rect x="657.2" y="357" width="14.3" height="15.0" fill="rgb(229,156,42)" rx="2" ry="2" />
<text  x="660.17" y="367.5" ></text>
</g>
<g >
<title>__munmap (3 samples, 0.18%)</title><rect x="217.1" y="309" width="2.2" height="15.0" fill="rgb(240,201,18)" rx="2" ry="2" />
<text  x="220.09" y="319.5" ></text>
</g>
<g >
<title>[[kernel.kallsyms]] (3 samples, 0.18%)</title><rect x="128.6" y="309" width="2.2" height="15.0" fill="rgb(215,168,15)" rx="2" ry="2" />
<text  x="131.65" y="319.5" ></text>
</g>
<g >
<title>[[kernel.kallsyms]] (3 samples, 0.18%)</title><rect x="128.6" y="341" width="2.2" height="15.0" fill="rgb(238,1,0)" rx="2" ry="2" />
<text  x="131.65" y="351.5" ></text>
</g>
<g >
<title>[[kernel.kallsyms]] (3 samples, 0.18%)</title><rect x="217.1" y="85" width="2.2" height="15.0" fill="rgb(227,165,24)" rx="2" ry="2" />
<text  x="220.09" y="95.5" ></text>
</g>
<g >
<title>[[kernel.kallsyms]] (8 samples, 0.49%)</title><rect x="1184.2" y="373" width="5.8" height="15.0" fill="rgb(244,124,2)" rx="2" ry="2" />
<text  x="1187.25" y="383.5" ></text>
</g>
<g >
<title>[[kernel.kallsyms]] (8 samples, 0.49%)</title><rect x="1160.5" y="341" width="5.8" height="15.0" fill="rgb(212,160,38)" rx="2" ry="2" />
<text  x="1163.52" y="351.5" ></text>
</g>
<g >
<title>[[kernel.kallsyms]] (8 samples, 0.49%)</title><rect x="1184.2" y="293" width="5.8" height="15.0" fill="rgb(218,93,53)" rx="2" ry="2" />
<text  x="1187.25" y="303.5" ></text>
</g>
<g >
<title>[[kernel.kallsyms]] (2 samples, 0.12%)</title><rect x="1188.6" y="37" width="1.4" height="15.0" fill="rgb(249,87,25)" rx="2" ry="2" />
<text  x="1191.56" y="47.5" ></text>
</g>
<g >
<title>[[kernel.kallsyms]] (3 samples, 0.18%)</title><rect x="10.0" y="341" width="2.2" height="15.0" fill="rgb(212,169,25)" rx="2" ry="2" />
<text  x="13.00" y="351.5" ></text>
</g>
<g >
<title>[[kernel.kallsyms]] (4 samples, 0.24%)</title><rect x="214.2" y="277" width="2.9" height="15.0" fill="rgb(227,58,42)" rx="2" ry="2" />
<text  x="217.22" y="287.5" ></text>
</g>
<g >
<title>[[kernel.kallsyms]] (3 samples, 0.18%)</title><rect x="1164.1" y="213" width="2.2" height="15.0" fill="rgb(221,63,15)" rx="2" ry="2" />
<text  x="1167.11" y="223.5" ></text>
</g>
<g >
<title>[[kernel.kallsyms]] (2 samples, 0.12%)</title><rect x="1188.6" y="85" width="1.4" height="15.0" fill="rgb(227,167,3)" rx="2" ry="2" />
<text  x="1191.56" y="95.5" ></text>
</g>
<g >
<title>[[kernel.kallsyms]] (8 samples, 0.49%)</title><rect x="1184.2" y="357" width="5.8" height="15.0" fill="rgb(249,17,27)" rx="2" ry="2" />
<text  x="1187.25" y="367.5" ></text>
</g>
<g >
<title>ReadSet (122 samples, 7.43%)</title><rect x="131.5" y="325" width="87.8" height="15.0" fill="rgb(248,107,31)" rx="2" ry="2" />
<text  x="134.52" y="335.5" >ReadSet</text>
</g>
<g >
<title>__strsep_g (1 samples, 0.06%)</title><rect x="322.1" y="357" width="0.7" height="15.0" fill="rgb(237,196,26)" rx="2" ry="2" />
<text  x="325.08" y="367.5" ></text>
</g>
<g >
<title>[[kernel.kallsyms]] (1 samples, 0.06%)</title><rect x="278.9" y="293" width="0.8" height="15.0" fill="rgb(205,136,36)" rx="2" ry="2" />
<text  x="281.93" y="303.5" ></text>
</g>
<g >
<title>__memmove_avx_unaligned_erms (16 samples, 0.98%)</title><rect x="205.6" y="309" width="11.5" height="15.0" fill="rgb(244,226,29)" rx="2" ry="2" />
<text  x="208.59" y="319.5" ></text>
</g>
<g >
<title>[[kernel.kallsyms]] (5 samples, 0.30%)</title><rect x="1186.4" y="101" width="3.6" height="15.0" fill="rgb(239,83,15)" rx="2" ry="2" />
<text  x="1189.40" y="111.5" ></text>
</g>
<g >
<title>[[kernel.kallsyms]] (3 samples, 0.18%)</title><rect x="214.9" y="229" width="2.2" height="15.0" fill="rgb(247,139,15)" rx="2" ry="2" />
<text  x="217.94" y="239.5" ></text>
</g>
<g >
<title>[[kernel.kallsyms]] (1 samples, 0.06%)</title><rect x="1183.5" y="277" width="0.7" height="15.0" fill="rgb(240,157,37)" rx="2" ry="2" />
<text  x="1186.53" y="287.5" ></text>
</g>
<g >
<title>[[kernel.kallsyms]] (4 samples, 0.24%)</title><rect x="1163.4" y="245" width="2.9" height="15.0" fill="rgb(207,13,32)" rx="2" ry="2" />
<text  x="1166.39" y="255.5" ></text>
</g>
<g >
<title>[[kernel.kallsyms]] (13 samples, 0.79%)</title><rect x="662.2" y="261" width="9.3" height="15.0" fill="rgb(245,95,3)" rx="2" ry="2" />
<text  x="665.20" y="271.5" ></text>
</g>
<g >
<title>[[kernel.kallsyms]] (6 samples, 0.37%)</title><rect x="1162.0" y="293" width="4.3" height="15.0" fill="rgb(248,117,22)" rx="2" ry="2" />
<text  x="1164.96" y="303.5" ></text>
</g>
<g >
<title>[[kernel.kallsyms]] (3 samples, 0.18%)</title><rect x="217.1" y="213" width="2.2" height="15.0" fill="rgb(239,205,45)" rx="2" ry="2" />
<text  x="220.09" y="223.5" ></text>
</g>
<g >
<title>[[kernel.kallsyms]] (9 samples, 0.55%)</title><rect x="665.1" y="213" width="6.4" height="15.0" fill="rgb(254,83,17)" rx="2" ry="2" />
<text  x="668.08" y="223.5" ></text>
</g>
<g >
<title>[[kernel.kallsyms]] (8 samples, 0.49%)</title><rect x="1184.2" y="229" width="5.8" height="15.0" fill="rgb(211,141,40)" rx="2" ry="2" />
<text  x="1187.25" y="239.5" ></text>
</g>
<g >
<title>__strsep_g (3 samples, 0.18%)</title><rect x="273.9" y="325" width="2.2" height="15.0" fill="rgb(252,139,7)" rx="2" ry="2" />
<text  x="276.90" y="335.5" ></text>
</g>
<g >
<title>[[kernel.kallsyms]] (9 samples, 0.55%)</title><rect x="199.1" y="277" width="6.5" height="15.0" fill="rgb(218,50,51)" rx="2" ry="2" />
<text  x="202.12" y="287.5" ></text>
</g>
<g >
<title>str_to_mpn.isra.0 (12 samples, 0.73%)</title><rect x="344.4" y="357" width="8.6" height="15.0" fill="rgb(223,37,9)" rx="2" ry="2" />
<text  x="347.37" y="367.5" ></text>
</g>
<g >
<title>[[kernel.kallsyms]] (2 samples, 0.12%)</title><rect x="204.1" y="149" width="1.5" height="15.0" fill="rgb(211,120,37)" rx="2" ry="2" />
<text  x="207.15" y="159.5" ></text>
</g>
<g >
<title>[[kernel.kallsyms]] (1 samples, 0.06%)</title><rect x="278.9" y="277" width="0.8" height="15.0" fill="rgb(215,125,32)" rx="2" ry="2" />
<text  x="281.93" y="287.5" ></text>
</g>
<g >
<title>[[kernel.kallsyms]] (3 samples, 0.18%)</title><rect x="214.9" y="261" width="2.2" height="15.0" fill="rgb(227,172,0)" rx="2" ry="2" />
<text  x="217.94" y="271.5" ></text>
</g>
<g >
<title>[[kernel.kallsyms]] (11 samples, 0.67%)</title><rect x="197.7" y="293" width="7.9" height="15.0" fill="rgb(246,108,2)" rx="2" ry="2" />
<text  x="200.68" y="303.5" ></text>
</g>
<g >
<title>[[kernel.kallsyms]] (3 samples, 0.18%)</title><rect x="217.1" y="245" width="2.2" height="15.0" fill="rgb(223,77,18)" rx="2" ry="2" />
<text  x="220.09" y="255.5" ></text>
</g>
<g >
<title>[[kernel.kallsyms]] (8 samples, 0.49%)</title><rect x="1184.2" y="245" width="5.8" height="15.0" fill="rgb(242,1,48)" rx="2" ry="2" />
<text  x="1187.25" y="255.5" ></text>
</g>
<g >
<title>[[kernel.kallsyms]] (1 samples, 0.06%)</title><rect x="278.9" y="261" width="0.8" height="15.0" fill="rgb(213,202,52)" rx="2" ry="2" />
<text  x="281.93" y="271.5" ></text>
</g>
<g >
<title>[[kernel.kallsyms]] (1 samples, 0.06%)</title><rect x="506.9" y="341" width="0.7" height="15.0" fill="rgb(245,202,2)" rx="2" ry="2" />
<text  x="509.88" y="351.5" ></text>
</g>
<g >
<title>__strcspn_sse42 (53 samples, 3.23%)</title><rect x="12.2" y="341" width="38.1" height="15.0" fill="rgb(241,60,12)" rx="2" ry="2" />
<text  x="15.16" y="351.5" >__s..</text>
</g>
<g >
<title>[[kernel.kallsyms]] (1 samples, 0.06%)</title><rect x="218.5" y="69" width="0.8" height="15.0" fill="rgb(210,198,49)" rx="2" ry="2" />
<text  x="221.53" y="79.5" ></text>
</g>
<g >
<title>[[kernel.kallsyms]] (3 samples, 0.18%)</title><rect x="217.1" y="277" width="2.2" height="15.0" fill="rgb(214,119,49)" rx="2" ry="2" />
<text  x="220.09" y="287.5" ></text>
</g>
<g >
<title>[[kernel.kallsyms]] (6 samples, 0.37%)</title><rect x="1162.0" y="325" width="4.3" height="15.0" fill="rgb(251,131,22)" rx="2" ry="2" />
<text  x="1164.96" y="335.5" ></text>
</g>
<g >
<title>[[kernel.kallsyms]] (1 samples, 0.06%)</title><rect x="506.9" y="309" width="0.7" height="15.0" fill="rgb(216,223,52)" rx="2" ry="2" />
<text  x="509.88" y="319.5" ></text>
</g>
<g >
<title>[[kernel.kallsyms]] (3 samples, 0.18%)</title><rect x="10.0" y="325" width="2.2" height="15.0" fill="rgb(210,4,51)" rx="2" ry="2" />
<text  x="13.00" y="335.5" ></text>
</g>
<g >
<title>[[kernel.kallsyms]] (8 samples, 0.49%)</title><rect x="199.8" y="261" width="5.8" height="15.0" fill="rgb(212,75,39)" rx="2" ry="2" />
<text  x="202.84" y="271.5" ></text>
</g>
<g >
<title>[[kernel.kallsyms]] (14 samples, 0.85%)</title><rect x="661.5" y="277" width="10.0" height="15.0" fill="rgb(220,207,4)" rx="2" ry="2" />
<text  x="664.48" y="287.5" ></text>
</g>
<g >
<title>[[kernel.kallsyms]] (1 samples, 0.06%)</title><rect x="506.9" y="325" width="0.7" height="15.0" fill="rgb(206,42,20)" rx="2" ry="2" />
<text  x="509.88" y="335.5" ></text>
</g>
<g >
<title>[[kernel.kallsyms]] (6 samples, 0.37%)</title><rect x="201.3" y="213" width="4.3" height="15.0" fill="rgb(239,175,33)" rx="2" ry="2" />
<text  x="204.27" y="223.5" ></text>
</g>
<g >
<title>strsep@plt (1 samples, 0.06%)</title><rect x="276.1" y="325" width="0.7" height="15.0" fill="rgb(234,66,29)" rx="2" ry="2" />
<text  x="279.06" y="335.5" ></text>
</g>
<g >
<title>[[kernel.kallsyms]] (3 samples, 0.18%)</title><rect x="217.1" y="261" width="2.2" height="15.0" fill="rgb(211,116,50)" rx="2" ry="2" />
<text  x="220.09" y="271.5" ></text>
</g>
<g >
<title>[[kernel.kallsyms]] (1 samples, 0.06%)</title><rect x="506.9" y="293" width="0.7" height="15.0" fill="rgb(245,208,42)" rx="2" ry="2" />
<text  x="509.88" y="303.5" ></text>
</g>
<g >
<title>[[kernel.kallsyms]] (2 samples, 0.12%)</title><rect x="215.7" y="149" width="1.4" height="15.0" fill="rgb(205,83,21)" rx="2" ry="2" />
<text  x="218.66" y="159.5" ></text>
</g>
<g >
<title>__libc_start_main (207 samples, 12.61%)</title><rect x="130.8" y="357" width="148.9" height="15.0" fill="rgb(216,98,33)" rx="2" ry="2" />
<text  x="133.80" y="367.5" >__libc_start_main</text>
</g>
<g >
<title>[[kernel.kallsyms]] (3 samples, 0.18%)</title><rect x="217.1" y="133" width="2.2" height="15.0" fill="rgb(207,32,41)" rx="2" ry="2" />
<text  x="220.09" y="143.5" ></text>
</g>
<g >
<title>msort_with_tmp.part.0 (907 samples, 55.27%)</title><rect x="507.6" y="373" width="652.2" height="15.0" fill="rgb(220,138,53)" rx="2" ry="2" />
<text  x="510.60" y="383.5" >msort_with_tmp.part.0</text>
</g>
<g >
<title>[[kernel.kallsyms]] (1 samples, 0.06%)</title><rect x="1183.5" y="293" width="0.7" height="15.0" fill="rgb(241,22,35)" rx="2" ry="2" />
<text  x="1186.53" y="303.5" ></text>
</g>
<g >
<title>__mpn_lshift (9 samples, 0.55%)</title><rect x="438.6" y="373" width="6.4" height="15.0" fill="rgb(220,9,32)" rx="2" ry="2" />
<text  x="441.57" y="383.5" ></text>
</g>
<g >
<title>[[kernel.kallsyms]] (3 samples, 0.18%)</title><rect x="203.4" y="165" width="2.2" height="15.0" fill="rgb(252,116,33)" rx="2" ry="2" />
<text  x="206.43" y="175.5" ></text>
</g>
<g >
<title>[[kernel.kallsyms]] (1 samples, 0.06%)</title><rect x="130.1" y="293" width="0.7" height="15.0" fill="rgb(242,12,29)" rx="2" ry="2" />
<text  x="133.09" y="303.5" ></text>
</g>
<g >
<title>[[kernel.kallsyms]] (8 samples, 0.49%)</title><rect x="1184.2" y="309" width="5.8" height="15.0" fill="rgb(226,111,37)" rx="2" ry="2" />
<text  x="1187.25" y="319.5" ></text>
</g>
<g >
<title>[[kernel.kallsyms]] (1 samples, 0.06%)</title><rect x="1159.1" y="341" width="0.7" height="15.0" fill="rgb(224,154,30)" rx="2" ry="2" />
<text  x="1162.08" y="351.5" ></text>
</g>
<g >
<title>[[kernel.kallsyms]] (1 samples, 0.06%)</title><rect x="1183.5" y="341" width="0.7" height="15.0" fill="rgb(237,87,20)" rx="2" ry="2" />
<text  x="1186.53" y="351.5" ></text>
</g>
<g >
<title>[[kernel.kallsyms]] (6 samples, 0.37%)</title><rect x="1162.0" y="309" width="4.3" height="15.0" fill="rgb(228,98,42)" rx="2" ry="2" />
<text  x="1164.96" y="319.5" ></text>
</g>
<g >
<title>[[kernel.kallsyms]] (1 samples, 0.06%)</title><rect x="130.1" y="245" width="0.7" height="15.0" fill="rgb(249,118,49)" rx="2" ry="2" />
<text  x="133.09" y="255.5" ></text>
</g>
<g >
<title>[[kernel.kallsyms]] (3 samples, 0.18%)</title><rect x="214.9" y="245" width="2.2" height="15.0" fill="rgb(240,155,16)" rx="2" ry="2" />
<text  x="217.94" y="255.5" ></text>
</g>
<g >
<title>strtod (2 samples, 0.12%)</title><rect x="276.8" y="325" width="1.4" height="15.0" fill="rgb(253,87,36)" rx="2" ry="2" />
<text  x="279.78" y="335.5" ></text>
</g>
<g >
<title>ministat (1,633 samples, 99.51%)</title><rect x="10.0" y="389" width="1174.2" height="15.0" fill="rgb(218,168,44)" rx="2" ry="2" />
<text  x="13.00" y="399.5" >ministat</text>
</g>
<g >
<title>[[kernel.kallsyms]] (8 samples, 0.49%)</title><rect x="199.8" y="245" width="5.8" height="15.0" fill="rgb(215,70,28)" rx="2" ry="2" />
<text  x="202.84" y="255.5" ></text>
</g>
<g >
<title>[[kernel.kallsyms]] (3 samples, 0.18%)</title><rect x="214.9" y="197" width="2.2" height="15.0" fill="rgb(231,16,35)" rx="2" ry="2" />
<text  x="217.94" y="207.5" ></text>
</g>
<g >
<title>__GI_____strtod_l_internal (31 samples, 1.89%)</title><rect x="223.6" y="325" width="22.3" height="15.0" fill="rgb(213,77,7)" rx="2" ry="2" />
<text  x="226.56" y="335.5" >_..</text>
</g>
<g >
<title>[[kernel.kallsyms]] (1 samples, 0.06%)</title><rect x="506.9" y="357" width="0.7" height="15.0" fill="rgb(215,224,12)" rx="2" ry="2" />
<text  x="509.88" y="367.5" ></text>
</g>
<g >
<title>read (9 samples, 0.55%)</title><rect x="1159.8" y="373" width="6.5" height="15.0" fill="rgb(219,214,34)" rx="2" ry="2" />
<text  x="1162.80" y="383.5" ></text>
</g>
<g >
<title>[[kernel.kallsyms]] (3 samples, 0.18%)</title><rect x="128.6" y="325" width="2.2" height="15.0" fill="rgb(210,37,38)" rx="2" ry="2" />
<text  x="131.65" y="335.5" ></text>
</g>
<g >
<title>[[kernel.kallsyms]] (8 samples, 0.49%)</title><rect x="1184.2" y="197" width="5.8" height="15.0" fill="rgb(241,128,33)" rx="2" ry="2" />
<text  x="1187.25" y="207.5" ></text>
</g>
<g >
<title>round_and_return (30 samples, 1.83%)</title><rect x="322.8" y="357" width="21.6" height="15.0" fill="rgb(234,116,32)" rx="2" ry="2" />
<text  x="325.80" y="367.5" >r..</text>
</g>
<g >
<title>[[kernel.kallsyms]] (8 samples, 0.49%)</title><rect x="1184.2" y="213" width="5.8" height="15.0" fill="rgb(209,144,51)" rx="2" ry="2" />
<text  x="1187.25" y="223.5" ></text>
</g>
<g >
<title>[[kernel.kallsyms]] (14 samples, 0.85%)</title><rect x="661.5" y="309" width="10.0" height="15.0" fill="rgb(254,76,30)" rx="2" ry="2" />
<text  x="664.48" y="319.5" ></text>
</g>
<g >
<title>str_to_mpn.isra.0 (19 samples, 1.16%)</title><rect x="1170.6" y="373" width="13.6" height="15.0" fill="rgb(217,80,36)" rx="2" ry="2" />
<text  x="1173.59" y="383.5" ></text>
</g>
<g >
<title>[[kernel.kallsyms]] (3 samples, 0.18%)</title><rect x="10.0" y="309" width="2.2" height="15.0" fill="rgb(231,37,10)" rx="2" ry="2" />
<text  x="13.00" y="319.5" ></text>
</g>
<g >
<title>[[kernel.kallsyms]] (2 samples, 0.12%)</title><rect x="10.7" y="229" width="1.5" height="15.0" fill="rgb(220,65,31)" rx="2" ry="2" />
<text  x="13.72" y="239.5" ></text>
</g>
<g >
<title>[[kernel.kallsyms]] (1 samples, 0.06%)</title><rect x="1183.5" y="245" width="0.7" height="15.0" fill="rgb(213,188,2)" rx="2" ry="2" />
<text  x="1186.53" y="255.5" ></text>
</g>
<g >
<title>[[kernel.kallsyms]] (14 samples, 0.85%)</title><rect x="661.5" y="293" width="10.0" height="15.0" fill="rgb(214,157,14)" rx="2" ry="2" />
<text  x="664.48" y="303.5" ></text>
</g>
</g>
</svg>
